<?xml version="1.0" encoding="UTF-8"?>
<svg version="1.1" xmlns="http://www.w3.org/2000/svg" width="500" height="500">
<path d="M0 0 C1.79302244 -0.00599138 3.58604231 -0.01279833 5.37905884 -0.02035522 C10.23049762 -0.0379607 15.08186576 -0.04270831 19.9333334 -0.0439868 C22.96993931 -0.04541209 26.00652748 -0.04968885 29.04312897 -0.05498123 C39.6527876 -0.07346374 50.26239611 -0.08165411 60.87207031 -0.08007812 C70.73605744 -0.07887734 80.59982554 -0.09997205 90.46375728 -0.13156545 C98.95410329 -0.15778286 107.444378 -0.16844313 115.93476415 -0.16716731 C120.99608527 -0.16665927 126.05721161 -0.17225478 131.11849213 -0.19352341 C135.88255644 -0.21299802 140.646242 -0.21296764 145.41032028 -0.19849014 C147.14966007 -0.19641232 148.88902415 -0.20104108 150.6283226 -0.21321106 C170.3640829 -0.34225931 185.55518952 4.97011711 199.98144531 18.66552734 C208.73780261 27.76646352 214.40210855 39.11408856 214.43438721 51.81643677 C214.43884389 52.79715772 214.43884389 52.79715772 214.44339061 53.79769123 C214.45205681 55.98688529 214.45358411 58.17602453 214.45507812 60.36523438 C214.45970789 61.93578711 214.46473276 63.50633873 214.47012329 65.07688904 C214.48323681 69.34371604 214.48969058 73.61052731 214.49413395 77.87737131 C214.49706726 80.54556775 214.50117264 83.21375991 214.50563812 85.88195419 C214.51931228 94.23699108 214.52897849 102.59201817 214.53284001 110.94706547 C214.53731623 120.57837355 214.55484419 130.20953938 214.58384061 139.84080422 C214.60549487 147.29321173 214.61554634 154.74557934 214.61688113 162.19801795 C214.61792677 166.64504904 214.62378278 171.0919464 214.64170074 175.53894424 C214.65824557 179.72669743 214.66030601 183.91421732 214.65156174 188.10199165 C214.6507947 189.63295557 214.65508984 191.16393237 214.66501999 192.69486427 C214.77182691 210.19812867 210.15891856 221.26831139 198.44238281 234.25927734 C196.44537546 236.14735703 194.81188217 237.24233643 192.29394531 238.29052734 C192.29394531 238.95052734 192.29394531 239.61052734 192.29394531 240.29052734 C189.29394531 242.29052734 189.29394531 242.29052734 186.29394531 242.29052734 C186.29394531 242.95052734 186.29394531 243.61052734 186.29394531 244.29052734 C184.25517582 245.11026997 182.21278456 245.92100804 180.16894531 246.72802734 C179.03199219 247.18048828 177.89503906 247.63294922 176.72363281 248.09912109 C171.02383151 250.07912041 165.58445139 250.4384077 159.59188843 250.43096924 C158.45758768 250.43542592 158.45758768 250.43542592 157.30037177 250.43997264 C154.77657112 250.4486164 152.25281816 250.45016422 149.72900391 250.45166016 C147.91509908 250.45629145 146.10119522 250.46131653 144.28729248 250.46670532 C139.36551177 250.47980266 134.44374469 250.48626925 129.52194929 250.49071598 C126.44332796 250.49365144 123.36471032 250.49775718 120.28609085 250.50222015 C110.64320308 250.51588901 101.00032378 250.52555826 91.357427 250.52942204 C80.24611398 250.53389929 69.13492419 250.55143429 58.02364862 250.58042264 C49.42213484 250.60208003 40.82065564 250.61212852 32.2191149 250.61346316 C27.08794703 250.61450842 21.9568951 250.62035652 16.82575607 250.63828278 C11.99449133 250.65483338 7.16342879 250.6568852 2.33214569 250.64814377 C0.56658764 250.64737708 -1.1989816 250.65166705 -2.96451187 250.66160202 C-18.08648968 250.74165259 -30.82394963 248.87859738 -43.70605469 240.29052734 C-43.70605469 239.63052734 -43.70605469 238.97052734 -43.70605469 238.29052734 C-45.35605469 237.63052734 -47.00605469 236.97052734 -48.70605469 236.29052734 C-48.70605469 235.63052734 -48.70605469 234.97052734 -48.70605469 234.29052734 C-49.36605469 234.29052734 -50.02605469 234.29052734 -50.70605469 234.29052734 C-54.70605469 229.81993911 -54.70605469 229.81993911 -54.70605469 227.29052734 C-55.36605469 227.29052734 -56.02605469 227.29052734 -56.70605469 227.29052734 C-57.83882737 225.10675969 -58.96228258 222.91895606 -60.08105469 220.72802734 C-60.39816406 220.11894531 -60.71527344 219.50986328 -61.04199219 218.88232422 C-61.35136719 218.27324219 -61.66074219 217.66416016 -61.97949219 217.03662109 C-62.40367432 216.21182251 -62.40367432 216.21182251 -62.83642578 215.37036133 C-65.05586462 210.06227613 -65.95667436 205.13627077 -65.9667511 199.40385437 C-65.97057665 198.74747712 -65.97440219 198.09109988 -65.97834367 197.41483241 C-65.98858922 195.23488608 -65.98469777 193.05520731 -65.98071289 190.87524414 C-65.98506411 189.30424762 -65.99024863 187.73325323 -65.99620056 186.16226196 C-66.00955924 181.90798445 -66.01017261 177.65379595 -66.00763726 173.39950156 C-66.00656519 169.84109564 -66.01145707 166.28270754 -66.01624268 162.72430545 C-66.02732754 154.32457215 -66.02778135 145.92488356 -66.02172852 137.52514648 C-66.01569203 128.87676901 -66.02799382 120.22855436 -66.04929858 111.58020467 C-66.06694814 104.14046785 -66.07291057 96.7007827 -66.06966084 89.26102573 C-66.06785282 84.82411031 -66.07043573 80.387311 -66.08437538 75.95041466 C-66.09700342 71.77491867 -66.09496288 67.59967526 -66.08196449 63.42418289 C-66.07960977 61.89805959 -66.0822935 60.37191824 -66.09058762 58.84581566 C-66.16961274 43.16569068 -62.42439846 31.63545052 -52.70605469 19.29052734 C-52.04605469 19.29052734 -51.38605469 19.29052734 -50.70605469 19.29052734 C-50.52042969 18.73365234 -50.33480469 18.17677734 -50.14355469 17.60302734 C-48.06494643 14.25917928 -45.09791866 12.24244907 -41.70605469 10.29052734 C-41.04605469 10.29052734 -40.38605469 10.29052734 -39.70605469 10.29052734 C-39.70605469 9.63052734 -39.70605469 8.97052734 -39.70605469 8.29052734 C-37.73256444 7.32055841 -35.75190472 6.36517261 -33.76855469 5.41552734 C-32.66640625 4.88185547 -31.56425781 4.34818359 -30.42871094 3.79833984 C-20.58475628 -0.40810536 -10.48496497 -0.0070004 0 0 Z " fill="#0E1115" transform="translate(175.7060546875,114.70947265625)"/>
<path d="M0 0 C0.68984482 -0.0065712 1.37968964 -0.0131424 2.09043884 -0.01991272 C4.37320064 -0.03961956 6.65589662 -0.05130429 8.9387207 -0.0612793 C10.1111328 -0.06739259 10.1111328 -0.06739259 11.30723 -0.07362938 C15.44667928 -0.09448199 19.58609551 -0.10878549 23.72558594 -0.11816406 C27.98812212 -0.12920874 32.25013343 -0.16358801 36.51248455 -0.20333576 C39.80089749 -0.22956445 43.08918675 -0.23786155 46.37769508 -0.24144554 C47.94808294 -0.24629775 49.51846577 -0.25787263 51.08875084 -0.27648354 C66.85681285 -0.45170429 66.85681285 -0.45170429 73.17700195 4.17700195 C74.54368099 7.99426527 74.28870386 11.92272381 74.23950195 15.92700195 C74.23499023 16.62438477 74.23047852 17.32176758 74.22583008 18.0402832 C74.21410216 19.75255998 74.19616848 21.46479229 74.17700195 23.17700195 C74.96848633 22.68844727 75.7599707 22.19989258 76.57543945 21.6965332 C81.15421769 19.76470594 84.89491461 19.77013489 89.80200195 19.86450195 C90.64762695 19.8612793 91.49325195 19.85805664 92.36450195 19.85473633 C99.79878628 19.91922933 99.79878628 19.91922933 103.17700195 22.17700195 C104.42700195 25.80200195 104.42700195 25.80200195 105.17700195 29.17700195 C100.55200195 32.17700195 100.55200195 32.17700195 97.17700195 32.17700195 C97.17700195 32.83700195 97.17700195 33.49700195 97.17700195 34.17700195 C98.16700195 34.50700195 99.15700195 34.83700195 100.17700195 35.17700195 C100.21972295 36.843121 100.21764027 38.5108308 100.17700195 40.17700195 C99.84700195 40.50700195 99.51700195 40.83700195 99.17700195 41.17700195 C99.83700195 41.50700195 100.49700195 41.83700195 101.17700195 42.17700195 C101.17700195 45.47700195 101.17700195 48.77700195 101.17700195 52.17700195 C97.53805637 53.99647474 93.30932461 53.4901779 89.30200195 53.55200195 C88.39063477 53.58938477 87.47926758 53.62676758 86.5402832 53.6652832 C85.21963867 53.68268555 85.21963867 53.68268555 83.87231445 53.70043945 C82.66599365 53.73016846 82.66599365 53.73016846 81.43530273 53.76049805 C79.17700195 53.17700195 79.17700195 53.17700195 75.17700195 48.17700195 C75.17700195 56.09700195 75.17700195 64.01700195 75.17700195 72.17700195 C75.83700195 69.53700195 76.49700195 66.89700195 77.17700195 64.17700195 C79.43956061 63.04572263 80.69488104 63.0480961 83.2043457 63.04418945 C83.99647461 63.04290039 84.78860352 63.04161133 85.60473633 63.0402832 C86.84707031 63.04608398 86.84707031 63.04608398 88.11450195 63.05200195 C88.93885742 63.04813477 89.76321289 63.04426758 90.61254883 63.0402832 C91.4059668 63.04157227 92.19938477 63.04286133 93.0168457 63.04418945 C93.74250732 63.04531738 94.46816895 63.04644531 95.21582031 63.04760742 C97.17700195 63.17700195 97.17700195 63.17700195 100.17700195 64.17700195 C101.46018087 68.02653872 101.24343832 71.1243833 101.17700195 75.17700195 C97.79480517 76.86810034 94.03533877 76.64540942 90.30200195 76.86450195 C89.48602539 76.92444336 88.67004883 76.98438477 87.8293457 77.04614258 C87.03915039 77.09319336 86.24895508 77.14024414 85.43481445 77.1887207 C84.35417725 77.25772583 84.35417725 77.25772583 83.25170898 77.328125 C80.82377056 77.15127234 79.27014424 76.38331445 77.17700195 75.17700195 C75.95965442 78.50441856 75.16533855 81.31463011 74.86450195 84.86450195 C74.17700195 88.17700195 74.17700195 88.17700195 71.86450195 89.92700195 C70.97762695 90.33950195 70.09075195 90.75200195 69.17700195 91.17700195 C68.45512695 91.73387695 67.73325195 92.29075195 66.98950195 92.86450195 C65.17700195 94.17700195 65.17700195 94.17700195 63.17700195 94.17700195 C63.50700195 95.16700195 63.83700195 96.15700195 64.17700195 97.17700195 C63.17700195 98.17700195 63.17700195 98.17700195 59.61450195 98.23950195 C58.48012695 98.21887695 57.34575195 98.19825195 56.17700195 98.17700195 C56.20842285 99.1985437 56.20842285 99.1985437 56.24047852 100.24072266 C56.32357648 103.32349918 56.3756415 106.40604032 56.42700195 109.48950195 C56.46051758 110.56135742 56.4940332 111.63321289 56.52856445 112.73754883 C56.54790039 114.27958984 56.54790039 114.27958984 56.56762695 115.8527832 C56.59904785 117.27457886 56.59904785 117.27457886 56.63110352 118.72509766 C56.17700195 121.17700195 56.17700195 121.17700195 54.32055664 123.02539062 C52.17700195 124.17700195 52.17700195 124.17700195 49.48950195 123.92700195 C47.17700195 123.17700195 47.17700195 123.17700195 46.17700195 122.17700195 C46.07737958 120.34714573 46.04619743 118.51347317 46.04418945 116.6809082 C46.04290039 115.56522461 46.04161133 114.44954102 46.0402832 113.30004883 C46.04415039 112.12506836 46.04801758 110.95008789 46.05200195 109.73950195 C46.04813477 108.56838867 46.04426758 107.39727539 46.0402832 106.19067383 C46.04157227 105.07370117 46.04286133 103.95672852 46.04418945 102.8059082 C46.04531738 101.7753833 46.04644531 100.7448584 46.04760742 99.68310547 C46.17700195 97.17700195 46.17700195 97.17700195 47.17700195 95.17700195 C38.76200195 96.16700195 38.76200195 96.16700195 30.17700195 97.17700195 C32.15700195 97.67200195 32.15700195 97.67200195 34.17700195 98.17700195 C34.17700195 106.09700195 34.17700195 114.01700195 34.17700195 122.17700195 C29.97884813 124.27607887 29.38505721 124.39512321 25.17700195 123.17700195 C24.51700195 122.84700195 23.85700195 122.51700195 23.17700195 122.17700195 C23.17700195 113.59700195 23.17700195 105.01700195 23.17700195 96.17700195 C18.88700195 96.17700195 14.59700195 96.17700195 10.17700195 96.17700195 C10.83700195 97.49700195 11.49700195 98.81700195 12.17700195 100.17700195 C12.43579102 102.61889648 12.43579102 102.61889648 12.44262695 105.30981445 C12.44649414 106.76581055 12.44649414 106.76581055 12.45043945 108.2512207 C12.44270508 109.25797852 12.4349707 110.26473633 12.42700195 111.30200195 C12.43860352 112.82374023 12.43860352 112.82374023 12.45043945 114.3762207 C12.44786133 115.34430664 12.4452832 116.31239258 12.44262695 117.30981445 C12.44037109 118.19556152 12.43811523 119.08130859 12.43579102 119.99389648 C12.17700195 122.17700195 12.17700195 122.17700195 10.17700195 124.17700195 C6.12690783 124.52918405 3.70362921 124.10061682 0.17700195 122.17700195 C0.11886111 118.59373695 0.08335838 115.01059357 0.05200195 111.42700195 C0.03524414 110.4112207 0.01848633 109.39543945 0.0012207 108.34887695 C-0.00844727 106.8793457 -0.00844727 106.8793457 -0.01831055 105.38012695 C-0.034021 104.02902832 -0.034021 104.02902832 -0.05004883 102.65063477 C0.18978519 100.0377334 0.85388131 98.42035529 2.17700195 96.17700195 C1.4293457 96.1512207 0.68168945 96.12543945 -0.08862305 96.09887695 C-8.2705721 95.62766523 -8.2705721 95.62766523 -11.19799805 93.23950195 C-11.73424805 92.55887695 -12.27049805 91.87825195 -12.82299805 91.17700195 C-14.47299805 90.51700195 -16.12299805 89.85700195 -17.82299805 89.17700195 C-18.31799805 79.77200195 -18.31799805 79.77200195 -18.82299805 70.17700195 C-19.48299805 71.49700195 -20.14299805 72.81700195 -20.82299805 74.17700195 C-24.44784804 74.26381671 -28.07243248 74.31732917 -31.69799805 74.36450195 C-32.73053711 74.38963867 -33.76307617 74.41477539 -34.8269043 74.44067383 C-36.30610352 74.45517578 -36.30610352 74.45517578 -37.81518555 74.4699707 C-38.7263916 74.48568115 -39.63759766 74.5013916 -40.57641602 74.51757812 C-41.31778809 74.40518799 -42.05916016 74.29279785 -42.82299805 74.17700195 C-44.82299805 71.17700195 -44.82299805 71.17700195 -44.51049805 68.67700195 C-44.00201133 66.82795933 -43.42942342 64.99627808 -42.82299805 63.17700195 C-38.20299805 63.17700195 -33.58299805 63.17700195 -28.82299805 63.17700195 C-28.82299805 59.87700195 -28.82299805 56.57700195 -28.82299805 53.17700195 C-33.44299805 53.17700195 -38.06299805 53.17700195 -42.82299805 53.17700195 C-44.93988301 48.94323203 -45.01876744 48.41654797 -43.82299805 44.17700195 C-43.49299805 43.18700195 -43.16299805 42.19700195 -42.82299805 41.17700195 C-39.57316805 41.08971313 -36.32364054 41.03651538 -33.07299805 40.98950195 C-32.15260742 40.96436523 -31.2322168 40.93922852 -30.28393555 40.91333008 C-29.39448242 40.90366211 -28.5050293 40.89399414 -27.58862305 40.8840332 C-26.77167969 40.86832275 -25.95473633 40.8526123 -25.11303711 40.83642578 C-22.31059178 41.25320736 -20.93452784 42.33895343 -18.82299805 44.17700195 C-18.83459961 43.45254883 -18.84620117 42.7280957 -18.8581543 41.98168945 C-18.90531116 36.92916872 -18.89677369 32.14321428 -17.82299805 27.17700195 C-18.38688232 27.66378418 -18.9507666 28.15056641 -19.53173828 28.65209961 C-22.1304526 30.38162221 -23.40262665 30.56237451 -26.4831543 30.57543945 C-27.35907227 30.57930664 -28.23499023 30.58317383 -29.13745117 30.5871582 C-30.04430664 30.57555664 -30.95116211 30.56395508 -31.88549805 30.55200195 C-33.25158203 30.5694043 -33.25158203 30.5694043 -34.64526367 30.5871582 C-35.95720703 30.58135742 -35.95720703 30.58135742 -37.2956543 30.57543945 C-38.49073608 30.57036377 -38.49073608 30.57036377 -39.70996094 30.56518555 C-42.33221333 30.08345461 -43.25406963 29.30555827 -44.82299805 27.17700195 C-44.57846681 23.83507503 -44.21756247 22.57156638 -41.82299805 20.17700195 C-40.00708008 19.91821289 -40.00708008 19.91821289 -37.83081055 19.91137695 C-37.04319336 19.90879883 -36.25557617 19.9062207 -35.4440918 19.90356445 C-34.62038086 19.91129883 -33.79666992 19.9190332 -32.94799805 19.92700195 C-32.13202148 19.91926758 -31.31604492 19.9115332 -30.4753418 19.90356445 C-29.29004883 19.90743164 -29.29004883 19.90743164 -28.08081055 19.91137695 C-27.36038574 19.91363281 -26.63996094 19.91588867 -25.89770508 19.91821289 C-23.45912058 20.22239029 -21.88076717 20.83573249 -19.82299805 22.17700195 C-19.49299805 23.16700195 -19.16299805 24.15700195 -18.82299805 25.17700195 C-18.84362305 23.94723633 -18.86424805 22.7174707 -18.88549805 21.45043945 C-18.82469703 8.61217157 -18.82469703 8.61217157 -16.08081055 4.6809082 C-10.94170781 0.9065855 -6.31232222 0.04978032 0 0 Z " fill="#722CE2" transform="translate(174.822998046875,187.822998046875)"/>
<path d="M0 0 C23.1 0 46.2 0 70 0 C71.45772894 2.91545787 71.12732852 5.4727328 71.12939453 8.72875977 C71.13202301 9.76554367 71.13202301 9.76554367 71.13470459 10.82327271 C71.13911342 13.11267593 71.13618884 15.40200221 71.1328125 17.69140625 C71.13348574 19.27798986 71.13445593 20.86457336 71.13571167 22.45115662 C71.13718726 25.7775877 71.13503823 29.10399195 71.13037109 32.43041992 C71.12466924 36.70354881 71.12795656 40.97661496 71.13394356 45.24974155 C71.13754894 48.52585833 71.13641077 51.8019601 71.13381577 55.07807732 C71.13314667 56.65421493 71.1339743 58.23035389 71.13629532 59.80648994 C71.13882198 62.00457517 71.13498131 64.20255726 71.12939453 66.40063477 C71.12859894 67.65368912 71.12780334 68.90674347 71.12698364 70.19776917 C71 73 71 73 70 74 C67.85799676 74.09952293 65.71267295 74.12799679 63.56835938 74.12939453 C62.56105522 74.13202301 62.56105522 74.13202301 61.53340149 74.13470459 C59.30349172 74.1391223 57.07366064 74.13618542 54.84375 74.1328125 C53.30057764 74.13348556 51.75740539 74.13445561 50.2142334 74.13571167 C46.9759826 74.13718853 43.73775933 74.13503447 40.49951172 74.13037109 C36.33957477 74.1246738 32.17970234 74.12795287 28.01976776 74.13394356 C24.83200592 74.13754949 21.64425949 74.13641044 18.45649719 74.13381577 C16.92222588 74.13314658 15.38795318 74.13397461 13.85368347 74.13629532 C11.71296459 74.13882238 9.57235158 74.13498054 7.43164062 74.12939453 C5.60082947 74.12820114 5.60082947 74.12820114 3.73303223 74.12698364 C1 74 1 74 0 73 C-0.09439978 70.73008113 -0.11742226 68.45718033 -0.11352539 66.18530273 C-0.11367142 65.47314606 -0.11381744 64.76098938 -0.1139679 64.0272522 C-0.1132687 61.66266888 -0.10547606 59.29816339 -0.09765625 56.93359375 C-0.09579209 55.29834537 -0.09436818 53.66309643 -0.09336853 52.02784729 C-0.08954318 47.71565215 -0.07971275 43.40349048 -0.06866455 39.09130859 C-0.05665627 33.9218032 -0.05204827 28.75228664 -0.04621124 23.5827713 C-0.036501 15.72182423 -0.01734458 7.86095065 0 0 Z " fill="#0B0F12" transform="translate(168,198)"/>
<path d="M0 0 C1.02544922 -0.00128906 2.05089844 -0.00257813 3.10742188 -0.00390625 C4.72680664 0.00189453 4.72680664 0.00189453 6.37890625 0.0078125 C7.45462891 0.00394531 8.53035156 0.00007812 9.63867188 -0.00390625 C11.1787793 -0.00197266 11.1787793 -0.00197266 12.75 0 C13.69673584 0.00112793 14.64347168 0.00225586 15.61889648 0.00341797 C17.94140625 0.1328125 17.94140625 0.1328125 19.94140625 1.1328125 C19.94140625 38.4228125 19.94140625 75.7128125 19.94140625 114.1328125 C11.69140625 114.1328125 3.44140625 114.1328125 -5.05859375 114.1328125 C-6.63907904 112.55232721 -6.18457326 110.96110678 -6.18557739 108.76733398 C-6.18839722 107.82501923 -6.19121704 106.88270447 -6.19412231 105.91183472 C-6.19209808 104.86971832 -6.19007385 103.82760193 -6.18798828 102.75390625 C-6.19061676 101.1174968 -6.19061676 101.1174968 -6.19329834 99.44802856 C-6.19771938 95.82210729 -6.19477797 92.19623432 -6.19140625 88.5703125 C-6.19207922 86.06306957 -6.19304918 83.55582669 -6.19430542 81.04858398 C-6.19578274 75.78596499 -6.19372135 70.52335868 -6.18896484 65.26074219 C-6.18352226 59.16853048 -6.18528493 53.07635224 -6.19079125 46.98414135 C-6.19586818 41.13380232 -6.1953408 35.28347605 -6.19240952 29.43313599 C-6.19173999 26.93873083 -6.19256954 24.44432482 -6.19488907 21.94992065 C-6.19741411 18.47049664 -6.19357709 14.99113788 -6.18798828 11.51171875 C-6.19001251 10.46960236 -6.19203674 9.42748596 -6.19412231 8.35379028 C-6.19130249 7.41147552 -6.18848267 6.46916077 -6.18557739 5.49829102 C-6.18501185 4.26273216 -6.18501185 4.26273216 -6.18443489 3.00221252 C-5.92315619 -0.87914456 -3.28615966 0.00391976 0 0 Z " fill="#722BE5" transform="translate(290.05859375,167.8671875)"/>
<path d="M0 0 C6.93 0 13.86 0 21 0 C21 34.65 21 69.3 21 105 C13.74 105 6.48 105 -1 105 C-2.96005447 103.03994553 -2.13364313 100.0348787 -2.14663696 97.42474365 C-2.14618378 96.47770569 -2.14573059 95.53066772 -2.14526367 94.55493164 C-2.14862228 93.563134 -2.1519809 92.57133636 -2.15544128 91.54948425 C-2.16498286 88.25302904 -2.16689598 84.95662444 -2.16796875 81.66015625 C-2.17117905 79.3795113 -2.17454294 77.09886655 -2.17805481 74.81822205 C-2.18405408 70.03058393 -2.18589389 65.24296388 -2.18530273 60.45532227 C-2.18520105 54.30679937 -2.19885585 48.15839181 -2.21607494 42.00989628 C-2.22716854 37.29771894 -2.22922276 32.58556972 -2.22869301 27.87338066 C-2.22987702 25.60587606 -2.23432218 23.33837081 -2.24202538 21.07087898 C-2.25177235 17.90532371 -2.24896826 14.74002185 -2.24291992 11.57446289 C-2.24853943 10.62944916 -2.25415894 9.68443542 -2.25994873 8.71078491 C-2.25575424 7.85123703 -2.25155975 6.99168915 -2.24723816 6.10609436 C-2.24778293 5.35705369 -2.24832769 4.60801302 -2.24888897 3.83627415 C-2 2 -2 2 0 0 Z " fill="#742BE9" transform="translate(343,177)"/>
<path d="M0 0 C1.21538405 0.00138269 1.21538405 0.00138269 2.45532131 0.00279331 C3.38225292 0.00141865 4.30918453 0.00004398 5.26420498 -0.00137234 C6.80168392 0.00402058 6.80168392 0.00402058 8.37022305 0.00952244 C9.97978123 0.0093034 9.97978123 0.0093034 11.62185574 0.00907993 C15.18765656 0.00977959 18.75340589 0.01757445 22.31919765 0.02539158 C24.78399534 0.02725557 27.24879339 0.02867956 29.71359158 0.0296793 C36.21558045 0.03350596 42.71754716 0.0433375 49.21952724 0.05438328 C55.84844957 0.06513035 62.47737833 0.06917624 69.10630703 0.0742197 C82.12389464 0.08495964 95.14146685 0.10184686 108.1590414 0.12304783 C108.21288662 2.41446069 108.25176228 4.70622971 108.2840414 6.99804783 C108.30724453 8.2742197 108.33044765 9.55039158 108.3543539 10.86523533 C108.1590414 14.12304783 108.1590414 14.12304783 106.1590414 16.12304783 C104.24747372 16.37473011 104.24747372 16.37473011 101.86985683 16.37701511 C100.5195966 16.38547459 100.5195966 16.38547459 99.14205837 16.39410496 C98.15186199 16.3900565 97.16166561 16.38600803 96.14146328 16.38183689 C95.10075176 16.38534153 94.06004025 16.38884617 92.98779202 16.39245701 C89.5343914 16.40128741 86.08119425 16.3954205 82.6277914 16.38867283 C80.23647427 16.3900191 77.8451574 16.39195931 75.45384121 16.39447117 C70.4367656 16.39742421 65.41976111 16.39311898 60.40269375 16.38379002 C53.95936581 16.37239544 47.51620447 16.37895394 41.07288265 16.39093494 C36.13337344 16.39814866 31.19390397 16.39586785 26.25439358 16.39067936 C23.87804043 16.38934151 21.50168372 16.39099527 19.12533474 16.39563847 C15.80899855 16.40069565 12.4929353 16.39300472 9.17661953 16.38183689 C7.69132496 16.38790958 7.69132496 16.38790958 6.17602444 16.39410496 C5.27585094 16.38846531 4.37567745 16.38282566 3.44822598 16.37701511 C2.6636124 16.37626106 1.87899883 16.37550701 1.07060909 16.37473011 C-0.8409586 16.12304783 -0.8409586 16.12304783 -2.8409586 14.12304783 C-3.07142735 11.11914158 -3.07142735 11.11914158 -3.0284586 7.56054783 C-3.01879063 5.79517673 -3.01879063 5.79517673 -3.00892735 3.99414158 C-2.78615119 0.18622355 -2.78615119 0.18622355 0 0 Z " fill="#732BE9" transform="translate(261.8409585952759,287.8769521713257)"/>
<path d="M0 0 C0.79792969 0.00386719 1.59585937 0.00773438 2.41796875 0.01171875 C3.21589844 0.00785156 4.01382812 0.00398437 4.8359375 0 C10.79136108 0.01011108 10.79136108 0.01011108 11.91796875 1.13671875 C12.01316243 3.93661595 12.04350819 6.71178049 12.03149414 9.51196289 C12.03164017 10.38993027 12.03178619 11.26789764 12.03193665 12.17247009 C12.03123719 15.0889631 12.0234433 18.00539308 12.015625 20.921875 C12.01376093 22.93826767 12.01233698 24.95466079 12.01133728 26.97105408 C12.00751119 32.28937013 11.99768014 37.60765905 11.9866333 42.92596436 C11.97642113 48.34842563 11.97184008 53.77089127 11.96679688 59.19335938 C11.95605795 69.84115969 11.93846042 80.48893273 11.91796875 91.13671875 C5.64796875 91.13671875 -0.62203125 91.13671875 -7.08203125 91.13671875 C-7.10458114 79.41944744 -7.12294568 67.70219044 -7.13384342 55.98490238 C-7.13907253 50.54469563 -7.14617068 45.10450444 -7.1574707 39.66430664 C-7.1682986 34.41886173 -7.17430787 29.17343183 -7.17690849 23.92797661 C-7.17876292 21.92200929 -7.18238387 19.91604283 -7.18776131 17.91008186 C-7.19497044 15.11069051 -7.19602225 12.31136196 -7.19555664 9.51196289 C-7.19915192 8.6739917 -7.20274719 7.83602051 -7.20645142 6.97265625 C-7.19394132 0.06859689 -6.91509932 0.01174041 0 0 Z " fill="#742BE8" transform="translate(323.08203125,190.86328125)"/>
<path d="M0 0 C0.66 0 1.32 0 2 0 C3.26582219 3.86723631 3.1118765 7.73151262 3.0625 11.75 C3.05798828 12.44738281 3.05347656 13.14476562 3.04882812 13.86328125 C3.0371002 15.57555803 3.01916653 17.28779033 3 19 C3.79148438 18.51144531 4.58296875 18.02289063 5.3984375 17.51953125 C9.97721574 15.58770399 13.71791265 15.59313294 18.625 15.6875 C19.470625 15.68427734 20.31625 15.68105469 21.1875 15.67773438 C28.62178432 15.74222738 28.62178432 15.74222738 32 18 C33.25 21.625 33.25 21.625 34 25 C29.375 28 29.375 28 26 28 C26 28.66 26 29.32 26 30 C26.99 30.33 27.98 30.66 29 31 C29.042721 32.66611905 29.04063832 34.33382885 29 36 C28.67 36.33 28.34 36.66 28 37 C28.66 37.33 29.32 37.66 30 38 C30 41.3 30 44.6 30 48 C26.36105442 49.81947279 22.13232266 49.31317595 18.125 49.375 C16.75794922 49.43107422 16.75794922 49.43107422 15.36328125 49.48828125 C14.48285156 49.49988281 13.60242188 49.51148438 12.6953125 49.5234375 C11.4889917 49.5531665 11.4889917 49.5531665 10.25830078 49.58349609 C8 49 8 49 4 44 C4 51.92 4 59.84 4 68 C4.66 65.36 5.32 62.72 6 60 C8.26255865 58.86872067 9.51787909 58.87109415 12.02734375 58.8671875 C12.81947266 58.86589844 13.61160156 58.86460937 14.42773438 58.86328125 C15.67006836 58.86908203 15.67006836 58.86908203 16.9375 58.875 C17.76185547 58.87113281 18.58621094 58.86726563 19.43554688 58.86328125 C20.22896484 58.86457031 21.02238281 58.86585938 21.83984375 58.8671875 C22.92833618 58.86887939 22.92833618 58.86887939 24.03881836 58.87060547 C26 59 26 59 29 60 C30.28317892 63.84953676 30.06643637 66.94738135 30 71 C26.61780322 72.69109839 22.85833681 72.46840746 19.125 72.6875 C18.30902344 72.74744141 17.49304688 72.80738281 16.65234375 72.86914062 C15.86214844 72.91619141 15.07195312 72.96324219 14.2578125 73.01171875 C13.17717529 73.08072388 13.17717529 73.08072388 12.07470703 73.15112305 C9.64676861 72.97427039 8.09314228 72.2063125 6 71 C4.41744803 75.32564205 3.54855348 79.428721 3 84 C2.34 84 1.68 84 1 84 C1.00222061 83.02138504 1.00444122 82.04277008 1.00672913 81.03450012 C1.02700658 71.80903699 1.04199436 62.58357839 1.05181217 53.35809803 C1.05702928 48.61526879 1.0641057 43.87245755 1.07543945 39.12963867 C1.08630992 34.55201223 1.09228567 29.97440311 1.09487724 25.39676476 C1.09672398 23.65088313 1.10033018 21.90500244 1.10573006 20.15912819 C1.11299565 17.71259137 1.11398861 15.26612596 1.11352539 12.81958008 C1.11712067 12.09884811 1.12071594 11.37811615 1.12442017 10.63554382 C1.11690241 6.96274991 0.87527242 3.5715114 0 0 Z " fill="#190A39" transform="translate(246,192)"/>
<path d="M0 0 C3.6875 0.875 3.6875 0.875 7 2 C6.67 2.99 6.34 3.98 6 5 C6.66 5 7.32 5 8 5 C8 5.66 8 6.32 8 7 C9.32 7 10.64 7 12 7 C12.11596065 16.93580302 12.20474917 26.87144449 12.25906086 36.80778694 C12.28513082 41.42190617 12.32048088 46.03556169 12.37719727 50.64941406 C12.43161055 55.10389626 12.46144011 59.55793307 12.47438622 64.01272202 C12.48360945 65.71039718 12.50162076 67.40804856 12.52865028 69.1055336 C12.56506643 71.48771669 12.5699404 73.86807066 12.56762695 76.25048828 C12.58560333 76.94892349 12.60357971 77.6473587 12.62210083 78.36695862 C12.58419567 81.98544322 12.00186295 84.52720513 9.90202332 87.42184448 C4.94600437 91.8247683 -0.59052744 91.12553776 -6.94506836 91.11352539 C-7.92683548 91.11374443 -7.92683548 91.11374443 -8.92843628 91.1139679 C-11.06560727 91.11327801 -13.20268822 91.10552946 -15.33984375 91.09765625 C-16.83199516 91.09578878 -18.32414719 91.09436643 -19.81629944 91.09336853 C-23.72398604 91.08956925 -27.63163486 91.07976135 -31.53930664 91.06866455 C-35.53466277 91.0583945 -39.53002507 91.05385897 -43.52539062 91.04882812 C-51.35027755 91.03813652 -59.17513346 91.02109154 -67 91 C-67 90.34 -67 89.68 -67 89 C-68.65 88.67 -70.3 88.34 -72 88 C-72 87.34 -72 86.68 -72 86 C-68.27753979 83.51835986 -66.31610439 83.72647984 -61.86645508 83.68115234 C-61.14425278 83.67110672 -60.42205048 83.6610611 -59.67796326 83.65071106 C-57.29182732 83.61983061 -54.90580383 83.60283066 -52.51953125 83.5859375 C-50.86471079 83.56722974 -49.2098999 83.54765662 -47.55509949 83.5272522 C-43.20026287 83.47588351 -38.84539531 83.43628322 -34.49041748 83.39910889 C-30.04626786 83.35909888 -25.60224749 83.30799286 -21.15820312 83.2578125 C-12.43889031 83.16099714 -3.71951363 83.0766104 5 83 C4.97003433 82.18627426 4.94006866 81.37254852 4.90919495 80.53416443 C4.27580652 63.03639602 3.85657707 45.57391653 3.9375 28.0625 C3.94254765 26.08398557 3.94710454 24.10546982 3.95117188 22.12695312 C3.96186773 17.41793437 3.9789329 12.70898328 4 8 C3.01 7.505 3.01 7.505 2 7 C1.01 6.34 0.02 5.68 -1 5 C-1 4.34 -1 3.68 -1 3 C-1.99 2.505 -1.99 2.505 -3 2 C-2.01 1.34 -1.02 0.68 0 0 Z " fill="#732BE8" transform="translate(236,190)"/>
<path d="M0 0 C1.18774602 3.56323805 1.1055318 6.36802118 1.08178711 10.13012695 C1.07872055 10.85244507 1.07565399 11.57476318 1.07249451 12.31896973 C1.06534281 13.88715535 1.05595455 15.45533199 1.04459953 17.02349281 C1.02720604 19.50795206 1.0169085 21.99234692 1.00868225 24.47685242 C0.98423504 31.54086402 0.94873245 38.60478913 0.90405273 45.66870117 C0.87721529 49.99042881 0.86020706 54.3121061 0.84918404 58.6339016 C0.84298855 60.2784937 0.83300117 61.92307616 0.81910515 63.56762123 C0.79980933 65.87237491 0.79298163 68.17686565 0.78881836 70.48168945 C0.78136093 71.79168411 0.7739035 73.10167877 0.76622009 74.45137024 C0.99833109 77.97466697 1.72216332 80.7236948 3 84 C1.68 83.67 0.36 83.34 -1 83 C-1.495 73.595 -1.495 73.595 -2 64 C-2.66 65.32 -3.32 66.64 -4 68 C-7.62484999 68.08681476 -11.24943443 68.14032721 -14.875 68.1875 C-15.90753906 68.21263672 -16.94007813 68.23777344 -18.00390625 68.26367188 C-19.48310547 68.27817383 -19.48310547 68.27817383 -20.9921875 68.29296875 C-21.90339355 68.3086792 -22.81459961 68.32438965 -23.75341797 68.34057617 C-24.49479004 68.22818604 -25.23616211 68.1157959 -26 68 C-28 65 -28 65 -27.6875 62.5 C-27.17901328 60.65095738 -26.60642538 58.81927613 -26 57 C-21.38 57 -16.76 57 -12 57 C-12 53.7 -12 50.4 -12 47 C-16.62 47 -21.24 47 -26 47 C-28.11688496 42.76623008 -28.19576939 42.23954602 -27 38 C-26.67 37.01 -26.34 36.02 -26 35 C-22.75017 34.91271118 -19.5006425 34.85951342 -16.25 34.8125 C-15.32960937 34.78736328 -14.40921875 34.76222656 -13.4609375 34.73632812 C-12.57148438 34.72666016 -11.68203125 34.71699219 -10.765625 34.70703125 C-9.94868164 34.6913208 -9.13173828 34.67561035 -8.29003906 34.65942383 C-5.48759373 35.07620541 -4.11152979 36.16195148 -2 38 C-2.01160156 37.27554688 -2.02320313 36.55109375 -2.03515625 35.8046875 C-2.08231311 30.75216677 -2.07377564 25.96621233 -1 21 C-1.56388428 21.48678223 -2.12776855 21.97356445 -2.70874023 22.47509766 C-5.30745456 24.20462026 -6.5796286 24.38537255 -9.66015625 24.3984375 C-10.53607422 24.40230469 -11.41199219 24.40617187 -12.31445312 24.41015625 C-13.22130859 24.39855469 -14.12816406 24.38695312 -15.0625 24.375 C-16.42858398 24.39240234 -16.42858398 24.39240234 -17.82226562 24.41015625 C-19.13420898 24.40435547 -19.13420898 24.40435547 -20.47265625 24.3984375 C-21.66773804 24.39336182 -21.66773804 24.39336182 -22.88696289 24.38818359 C-25.50921528 23.90645265 -26.43107158 23.12855632 -28 21 C-27.75546876 17.65807308 -27.39456443 16.39456443 -25 14 C-23.18408203 13.74121094 -23.18408203 13.74121094 -21.0078125 13.734375 C-20.22019531 13.73179687 -19.43257812 13.72921875 -18.62109375 13.7265625 C-17.38552734 13.73816406 -17.38552734 13.73816406 -16.125 13.75 C-15.30902344 13.74226562 -14.49304688 13.73453125 -13.65234375 13.7265625 C-12.46705078 13.73042969 -12.46705078 13.73042969 -11.2578125 13.734375 C-10.5373877 13.73663086 -9.81696289 13.73888672 -9.07470703 13.74121094 C-6.63612253 14.04538834 -5.05776913 14.65873053 -3 16 C-2.67 16.99 -2.34 17.98 -2 19 C-1.93941406 17.71222656 -1.87882812 16.42445313 -1.81640625 15.09765625 C-1.73201753 13.41925841 -1.6473687 11.74087364 -1.5625 10.0625 C-1.52318359 9.21236328 -1.48386719 8.36222656 -1.44335938 7.48632812 C-1.40146484 6.67744141 -1.35957031 5.86855469 -1.31640625 5.03515625 C-1.27974854 4.2862915 -1.24309082 3.53742676 -1.20532227 2.76586914 C-1 1 -1 1 0 0 Z " fill="#110C20" transform="translate(158,194)"/>
<path d="M0 0 C23.76 0.33 47.52 0.66 72 1 C72.495 2.485 72.495 2.485 73 4 C72 5 72 5 68.4375 5.0625 C67.303125 5.041875 66.16875 5.02125 65 5 C65.0314209 6.02154175 65.0314209 6.02154175 65.06347656 7.0637207 C65.14657452 10.14649722 65.19863954 13.22903837 65.25 16.3125 C65.28351563 17.38435547 65.31703125 18.45621094 65.3515625 19.56054688 C65.37089844 21.10258789 65.37089844 21.10258789 65.390625 22.67578125 C65.4220459 24.0975769 65.4220459 24.0975769 65.45410156 25.5480957 C65 28 65 28 63.14355469 29.84838867 C61 31 61 31 58.3125 30.75 C56 30 56 30 55 29 C54.90037763 27.17014378 54.86919548 25.33647122 54.8671875 23.50390625 C54.86589844 22.38822266 54.86460937 21.27253906 54.86328125 20.12304688 C54.86714844 18.94806641 54.87101562 17.77308594 54.875 16.5625 C54.86919922 14.80583008 54.86919922 14.80583008 54.86328125 13.01367188 C54.86457031 11.89669922 54.86585938 10.77972656 54.8671875 9.62890625 C54.86831543 8.59838135 54.86944336 7.56785645 54.87060547 6.50610352 C55 4 55 4 56 2 C50.39 2.66 44.78 3.32 39 4 C40.32 4.33 41.64 4.66 43 5 C43 12.92 43 20.84 43 29 C38.80184617 31.09907691 38.20805526 31.21812126 34 30 C33.34 29.67 32.68 29.34 32 29 C32 20.42 32 11.84 32 3 C27.71 3 23.42 3 19 3 C19.66 4.32 20.32 5.64 21 7 C21.25878906 9.44189453 21.25878906 9.44189453 21.265625 12.1328125 C21.26949219 13.58880859 21.26949219 13.58880859 21.2734375 15.07421875 C21.26570313 16.08097656 21.25796875 17.08773438 21.25 18.125 C21.25773437 19.13949219 21.26546875 20.15398437 21.2734375 21.19921875 C21.27085937 22.16730469 21.26828125 23.13539063 21.265625 24.1328125 C21.26336914 25.01855957 21.26111328 25.90430664 21.25878906 26.81689453 C21 29 21 29 19 31 C14.94990588 31.3521821 12.52662726 30.92361487 9 29 C8.94185915 25.41673499 8.90635643 21.83359162 8.875 18.25 C8.85824219 17.23421875 8.84148437 16.2184375 8.82421875 15.171875 C8.81777344 14.1921875 8.81132812 13.2125 8.8046875 12.203125 C8.79421387 11.30239258 8.78374023 10.40166016 8.77294922 9.47363281 C9 7 9 7 11 3 C7.37 2.67 3.74 2.34 0 2 C0 1.34 0 0.68 0 0 Z " fill="#1B0C38" transform="translate(166,281)"/>
<path d="M0 0 C0.33 0 0.66 0 1 0 C1.33 36.96 1.66 73.92 2 112 C10.25 112.33 18.5 112.66 27 113 C27.33 113.66 27.66 114.32 28 115 C30.52733235 115.65555119 30.52733235 115.65555119 33 116 C33 115.01 33 114.02 33 113 C39.27 113 45.54 113 52 113 C51.67 83.3 51.34 53.6 51 23 C45.39 22.67 39.78 22.34 34 22 C34 21.67 34 21.34 34 21 C37.14581423 20.97111486 40.29159469 20.95324077 43.4375 20.9375 C44.78424805 20.92493164 44.78424805 20.92493164 46.15820312 20.91210938 C47.01220703 20.90888672 47.86621094 20.90566406 48.74609375 20.90234375 C49.53685303 20.89710693 50.3276123 20.89187012 51.14233398 20.88647461 C53 21 53 21 54 22 C54.11120447 24.84479968 54.15739898 27.66554657 54.16113281 30.51123047 C54.16858017 31.85021393 54.16858017 31.85021393 54.17617798 33.21624756 C54.19083974 36.18323524 54.19760826 39.15016947 54.203125 42.1171875 C54.20887316 44.17123416 54.21463093 46.22528079 54.22039795 48.27932739 C54.23091938 52.59198254 54.23675456 56.90461897 54.24023438 61.21728516 C54.2457214 66.75145994 54.26974914 72.28538897 54.29820633 77.81948662 C54.31680296 82.06418588 54.32203672 86.3088256 54.32357025 90.55356216 C54.32660406 92.59417184 54.33465696 94.6347803 54.34775543 96.67535019 C54.36475381 99.52708533 54.36295092 102.37821564 54.35644531 105.22998047 C54.3656601 106.07789154 54.37487488 106.92580261 54.3843689 107.79940796 C54.34272157 113.60834427 54.34272157 113.60834427 52.47703171 115.74041939 C51.98961124 116.15608099 51.50219078 116.57174259 51 117 C53.64 116.67 56.28 116.34 59 116 C58.67 114.68 58.34 113.36 58 112 C65.59 112.33 73.18 112.66 81 113 C80.67 113.66 80.34 114.32 80 115 C76.37 115 72.74 115 69 115 C69 115.66 69 116.32 69 117 C74.28 117 79.56 117 85 117 C85 117.66 85 118.32 85 119 C49.69 119 14.38 119 -22 119 C-19 116 -19 116 -16.82348633 115.65942383 C-16.00130615 115.67513428 -15.17912598 115.69084473 -14.33203125 115.70703125 C-13.43935547 115.71669922 -12.54667969 115.72636719 -11.62695312 115.73632812 C-10.69818359 115.76146484 -9.76941406 115.78660156 -8.8125 115.8125 C-7.87212891 115.82603516 -6.93175781 115.83957031 -5.96289062 115.85351562 C-3.64134962 115.88886904 -1.32096347 115.93821326 1 116 C0.67 115.01 0.34 114.02 0 113 C-0.0892726 111.45182673 -0.12197565 109.90006351 -0.12025452 108.34931946 C-0.12162918 107.39439606 -0.12300385 106.43947266 -0.12442017 105.45561218 C-0.12082489 104.40976456 -0.11722961 103.36391693 -0.11352539 102.28637695 C-0.11367142 101.1837854 -0.11381744 100.08119385 -0.1139679 98.94519043 C-0.11327002 95.29286751 -0.10548344 91.64059529 -0.09765625 87.98828125 C-0.09579163 85.4590813 -0.09436793 82.92988098 -0.09336853 80.40068054 C-0.08993768 74.41901338 -0.08205244 68.43736805 -0.07201904 62.45570964 C-0.06084387 55.64561498 -0.05534391 48.83551946 -0.05032361 42.02541792 C-0.03986946 28.01693517 -0.02227875 14.00846858 0 0 Z " fill="#150A2B" transform="translate(283,169)"/>
<path d="M0 0 C0.845625 -0.00322266 1.69125 -0.00644531 2.5625 -0.00976562 C9.99678432 0.05472738 9.99678432 0.05472738 13.375 2.3125 C14.625 5.9375 14.625 5.9375 15.375 9.3125 C10.75 12.3125 10.75 12.3125 7.375 12.3125 C7.375 12.9725 7.375 13.6325 7.375 14.3125 C8.365 14.6425 9.355 14.9725 10.375 15.3125 C10.375 16.9625 10.375 18.6125 10.375 20.3125 C6.60104539 21.57048487 2.93884922 21.63285654 -1 21.8125 C-7.863647 22.12787083 -7.863647 22.12787083 -14.625 23.3125 C-15.77482602 19.22246141 -15.73594256 15.28072949 -15.6875 11.0625 C-15.68298828 10.31742188 -15.67847656 9.57234375 -15.67382812 8.8046875 C-15.66209246 6.9739236 -15.6441585 5.14320127 -15.625 3.3125 C-10.31724608 0.03621541 -6.03508303 -0.11605929 0 0 Z " fill="#100D1E" transform="translate(264.625,207.6875)"/>
<path d="M0 0 C6.93 0 13.86 0 21 0 C21 34.65 21 69.3 21 105 C13.74 105 6.48 105 -1 105 C-2.96005447 103.03994553 -2.13364313 100.0348787 -2.14663696 97.42474365 C-2.14618378 96.47770569 -2.14573059 95.53066772 -2.14526367 94.55493164 C-2.14862228 93.563134 -2.1519809 92.57133636 -2.15544128 91.54948425 C-2.16498286 88.25302904 -2.16689598 84.95662444 -2.16796875 81.66015625 C-2.17117905 79.3795113 -2.17454294 77.09886655 -2.17805481 74.81822205 C-2.18405408 70.03058393 -2.18589389 65.24296388 -2.18530273 60.45532227 C-2.18520105 54.30679937 -2.19885585 48.15839181 -2.21607494 42.00989628 C-2.22716854 37.29771894 -2.22922276 32.58556972 -2.22869301 27.87338066 C-2.22987702 25.60587606 -2.23432218 23.33837081 -2.24202538 21.07087898 C-2.25177235 17.90532371 -2.24896826 14.74002185 -2.24291992 11.57446289 C-2.24853943 10.62944916 -2.25415894 9.68443542 -2.25994873 8.71078491 C-2.25575424 7.85123703 -2.25155975 6.99168915 -2.24723816 6.10609436 C-2.24778293 5.35705369 -2.24832769 4.60801302 -2.24888897 3.83627415 C-2 2 -2 2 0 0 Z M19 1 C19 1.66 19 2.32 19 3 C18.34 2.67 17.68 2.34 17 2 C14.4884113 1.90207108 12.01090234 1.86092017 9.5 1.875 C8.81035156 1.87113281 8.12070312 1.86726562 7.41015625 1.86328125 C3.57833786 1.80959134 3.57833786 1.80959134 0 3 C0 36.33 0 69.66 0 104 C6.6 104 13.2 104 20 104 C20 70.01 20 36.02 20 1 C19.67 1 19.34 1 19 1 Z " fill="#6733BF" transform="translate(343,177)"/>
<path d="M0 0 C1.21538405 0.00138269 1.21538405 0.00138269 2.45532131 0.00279331 C3.38225292 0.00141865 4.30918453 0.00004398 5.26420498 -0.00137234 C6.80168392 0.00402058 6.80168392 0.00402058 8.37022305 0.00952244 C9.97978123 0.0093034 9.97978123 0.0093034 11.62185574 0.00907993 C15.18765656 0.00977959 18.75340589 0.01757445 22.31919765 0.02539158 C24.78399534 0.02725557 27.24879339 0.02867956 29.71359158 0.0296793 C36.21558045 0.03350596 42.71754716 0.0433375 49.21952724 0.05438328 C55.84844957 0.06513035 62.47737833 0.06917624 69.10630703 0.0742197 C82.12389464 0.08495964 95.14146685 0.10184686 108.1590414 0.12304783 C108.21288662 2.41446069 108.25176228 4.70622971 108.2840414 6.99804783 C108.30724453 8.2742197 108.33044765 9.55039158 108.3543539 10.86523533 C108.1590414 14.12304783 108.1590414 14.12304783 106.1590414 16.12304783 C104.24747372 16.37473011 104.24747372 16.37473011 101.86985683 16.37701511 C100.5195966 16.38547459 100.5195966 16.38547459 99.14205837 16.39410496 C98.15186199 16.3900565 97.16166561 16.38600803 96.14146328 16.38183689 C95.10075176 16.38534153 94.06004025 16.38884617 92.98779202 16.39245701 C89.5343914 16.40128741 86.08119425 16.3954205 82.6277914 16.38867283 C80.23647427 16.3900191 77.8451574 16.39195931 75.45384121 16.39447117 C70.4367656 16.39742421 65.41976111 16.39311898 60.40269375 16.38379002 C53.95936581 16.37239544 47.51620447 16.37895394 41.07288265 16.39093494 C36.13337344 16.39814866 31.19390397 16.39586785 26.25439358 16.39067936 C23.87804043 16.38934151 21.50168372 16.39099527 19.12533474 16.39563847 C15.80899855 16.40069565 12.4929353 16.39300472 9.17661953 16.38183689 C7.69132496 16.38790958 7.69132496 16.38790958 6.17602444 16.39410496 C5.27585094 16.38846531 4.37567745 16.38282566 3.44822598 16.37701511 C2.6636124 16.37626106 1.87899883 16.37550701 1.07060909 16.37473011 C-0.8409586 16.12304783 -0.8409586 16.12304783 -2.8409586 14.12304783 C-3.07142735 11.11914158 -3.07142735 11.11914158 -3.0284586 7.56054783 C-3.01879063 5.79517673 -3.01879063 5.79517673 -3.00892735 3.99414158 C-2.78615119 0.18622355 -2.78615119 0.18622355 0 0 Z M-0.8409586 1.12304783 C-0.8409586 4.75304783 -0.8409586 8.38304783 -0.8409586 12.12304783 C2.2760209 14.20103416 2.93572375 14.37207875 6.46804714 14.36355686 C7.78684116 14.36768085 7.78684116 14.36768085 9.13227749 14.37188816 C10.09396847 14.36469761 11.05565945 14.35750706 12.04649258 14.35009861 C13.06130199 14.35039066 14.07611141 14.35068272 15.12167263 14.35098362 C18.48187159 14.34958832 21.84184985 14.33401755 25.20201015 14.31836033 C27.52942693 14.31463091 29.85684528 14.31178361 32.18426418 14.30978489 C38.31471485 14.30214281 44.44507099 14.28248933 50.57548428 14.26037693 C56.8292351 14.23993091 63.08300118 14.23078583 69.33677578 14.22070408 C81.61090589 14.19924403 93.88496579 14.16510111 106.1590414 14.12304783 C107.978933 10.85594264 107.978933 10.85594264 107.1590414 1.12304783 C71.5190414 1.12304783 35.8790414 1.12304783 -0.8409586 1.12304783 Z " fill="#662EBE" transform="translate(261.8409585952759,287.8769521713257)"/>
<path d="M0 0 C23.1 0 46.2 0 70 0 C71.45772894 2.91545787 71.12732852 5.4727328 71.12939453 8.72875977 C71.13202301 9.76554367 71.13202301 9.76554367 71.13470459 10.82327271 C71.13911342 13.11267593 71.13618884 15.40200221 71.1328125 17.69140625 C71.13348574 19.27798986 71.13445593 20.86457336 71.13571167 22.45115662 C71.13718726 25.7775877 71.13503823 29.10399195 71.13037109 32.43041992 C71.12466924 36.70354881 71.12795656 40.97661496 71.13394356 45.24974155 C71.13754894 48.52585833 71.13641077 51.8019601 71.13381577 55.07807732 C71.13314667 56.65421493 71.1339743 58.23035389 71.13629532 59.80648994 C71.13882198 62.00457517 71.13498131 64.20255726 71.12939453 66.40063477 C71.12859894 67.65368912 71.12780334 68.90674347 71.12698364 70.19776917 C71 73 71 73 70 74 C67.85799676 74.09952293 65.71267295 74.12799679 63.56835938 74.12939453 C62.56105522 74.13202301 62.56105522 74.13202301 61.53340149 74.13470459 C59.30349172 74.1391223 57.07366064 74.13618542 54.84375 74.1328125 C53.30057764 74.13348556 51.75740539 74.13445561 50.2142334 74.13571167 C46.9759826 74.13718853 43.73775933 74.13503447 40.49951172 74.13037109 C36.33957477 74.1246738 32.17970234 74.12795287 28.01976776 74.13394356 C24.83200592 74.13754949 21.64425949 74.13641044 18.45649719 74.13381577 C16.92222588 74.13314658 15.38795318 74.13397461 13.85368347 74.13629532 C11.71296459 74.13882238 9.57235158 74.13498054 7.43164062 74.12939453 C5.60082947 74.12820114 5.60082947 74.12820114 3.73303223 74.12698364 C1 74 1 74 0 73 C-0.09439978 70.73008113 -0.11742226 68.45718033 -0.11352539 66.18530273 C-0.11367142 65.47314606 -0.11381744 64.76098938 -0.1139679 64.0272522 C-0.1132687 61.66266888 -0.10547606 59.29816339 -0.09765625 56.93359375 C-0.09579209 55.29834537 -0.09436818 53.66309643 -0.09336853 52.02784729 C-0.08954318 47.71565215 -0.07971275 43.40349048 -0.06866455 39.09130859 C-0.05665627 33.9218032 -0.05204827 28.75228664 -0.04621124 23.5827713 C-0.036501 15.72182423 -0.01734458 7.86095065 0 0 Z M1 1 C1 24.76 1 48.52 1 73 C23.44 73 45.88 73 69 73 C69.05814367 60.60743102 69.05814367 60.60743102 69.09765625 48.21484375 C69.10962546 43.16255509 69.12380553 38.11033871 69.15087891 33.05810547 C69.17256303 28.98622723 69.18455923 24.91442647 69.18975449 20.84249496 C69.19345824 19.28670913 69.20069046 17.73092768 69.21146011 16.17517471 C69.22591638 14.00096626 69.22798044 11.82708058 69.22705078 9.65283203 C69.231492 8.41373077 69.23593323 7.17462952 69.24050903 5.89797974 C69.30371559 2.87291492 69.30371559 2.87291492 67 1 C64.12563704 0.70627477 64.12563704 0.70627477 60.71435547 0.77294922 C60.05991014 0.77270815 59.40546482 0.77246708 58.73118782 0.7722187 C56.60971677 0.77371322 54.4885958 0.7889518 52.3671875 0.8046875 C51.07176025 0.80670166 49.77633301 0.80871582 48.44165039 0.81079102 C43.58606442 0.82128314 38.73052879 0.8492055 33.875 0.875 C23.02625 0.91625 12.1775 0.9575 1 1 Z " fill="#160437" transform="translate(168,198)"/>
<path d="M0 0 C0.33 0 0.66 0 1 0 C1.33 24.09 1.66 48.18 2 73 C24.77 73 47.54 73 71 73 C71 48.91 71 24.82 71 0 C71.66 0 72.32 0 73 0 C73.02312465 9.63112712 73.04091571 19.26224474 73.05181217 28.89339352 C73.05704074 33.36505549 73.06413789 37.83669853 73.07543945 42.30834961 C73.08626929 46.62011973 73.09227704 50.93187159 73.09487724 55.24365425 C73.09673132 56.89236298 73.1003516 58.54107066 73.10573006 60.18977165 C73.11294178 62.49103872 73.11399089 64.7922294 73.11352539 67.09350586 C73.115746 68.4058873 73.11796661 69.71826874 73.12025452 71.07041931 C73 74 73 74 72 75 C69.73008113 75.09439978 67.45718033 75.11742226 65.18530273 75.11352539 C64.11706772 75.11374443 64.11706772 75.11374443 63.0272522 75.1139679 C60.66266888 75.1132687 58.29816339 75.10547606 55.93359375 75.09765625 C54.29834537 75.09579209 52.66309643 75.09436818 51.02784729 75.09336853 C46.71565215 75.08954318 42.40349048 75.07971275 38.09130859 75.06866455 C33.69434054 75.0584508 29.29736711 75.05387099 24.90039062 75.04882812 C16.26691169 75.03809049 7.63346 75.02101387 -1 75 C-1.76333782 70.29569138 -2.10657995 65.8338542 -2.03759766 61.07080078 C-2.02959641 60.41789566 -2.02159515 59.76499054 -2.01335144 59.09230042 C-1.98573595 56.9598542 -1.9501731 54.82763046 -1.9140625 52.6953125 C-1.89226859 51.20556117 -1.87082014 49.71580475 -1.84970093 48.2260437 C-1.80439377 45.1177517 -1.75518288 42.00955326 -1.703125 38.90136719 C-1.63655386 34.90985982 -1.5794166 30.91828254 -1.52509499 26.92659187 C-1.48236949 23.85716846 -1.43492312 20.78783235 -1.38599777 17.71850204 C-1.36305568 16.24565644 -1.34155163 14.77278773 -1.32149124 13.29990005 C-1.29283661 11.25080498 -1.25719661 9.20181113 -1.22119141 7.15283203 C-1.20263092 5.98591827 -1.18407043 4.81900452 -1.16494751 3.61672974 C-1 1 -1 1 0 0 Z " fill="#5D29AD" transform="translate(167,198)"/>
<path d="M0 0 C7.59 0.33 15.18 0.66 23 1 C22.67 1.66 22.34 2.32 22 3 C18.37 3 14.74 3 11 3 C11 3.66 11 4.32 11 5 C16.28 5 21.56 5 27 5 C27 5.66 27 6.32 27 7 C-8.31 7 -43.62 7 -80 7 C-76.76386916 3.76386916 -76.01337568 3.65381919 -71.67675781 3.6267395 C-70.95818604 3.63752533 -70.23961426 3.64831116 -69.49926758 3.65942383 C-68.3574427 3.65876671 -68.3574427 3.65876671 -67.19255066 3.65809631 C-64.67628334 3.66018647 -62.16068218 3.68352765 -59.64453125 3.70703125 C-57.90004338 3.71262641 -56.15555079 3.71689689 -54.41105652 3.71989441 C-49.81929513 3.73134951 -45.22781836 3.76082235 -40.63616943 3.79400635 C-35.95084483 3.82469293 -31.26547425 3.83839672 -26.58007812 3.85351562 C-17.38659369 3.88569146 -8.19332051 3.93689582 1 4 C0.505 2.02 0.505 2.02 0 0 Z " fill="#220E42" transform="translate(341,281)"/>
<path d="M0 0 C3.14581423 -0.02888514 6.29159469 -0.04675923 9.4375 -0.0625 C10.33533203 -0.07087891 11.23316406 -0.07925781 12.15820312 -0.08789062 C13.01220703 -0.09111328 13.86621094 -0.09433594 14.74609375 -0.09765625 C15.93223267 -0.10551147 15.93223267 -0.10551147 17.14233398 -0.11352539 C19 0 19 0 20 1 C20.09522418 3.86091818 20.12553326 6.69763621 20.11352539 9.55883789 C20.11367142 10.45631241 20.11381744 11.35378693 20.1139679 12.27845764 C20.11326842 15.25988134 20.10547441 18.2412434 20.09765625 21.22265625 C20.09579219 23.28388942 20.09436823 25.34512304 20.09336853 27.40635681 C20.08954237 32.8430401 20.07971126 38.27969686 20.06866455 43.71636963 C20.05845253 49.25947714 20.05387136 54.80258892 20.04882812 60.34570312 C20.03808908 71.23048043 20.02101149 82.11523802 20 93 C17.65147472 94.17426264 16.26225935 94.11508173 13.6484375 94.09765625 C12.79765625 94.09443359 11.946875 94.09121094 11.0703125 94.08789062 C10.18085938 94.07951172 9.29140625 94.07113281 8.375 94.0625 C7.4778125 94.05798828 6.580625 94.05347656 5.65625 94.04882812 C3.43743352 94.03702591 1.21874982 94.02056155 -1 94 C-1 93.34 -1 92.68 -1 92 C5.27 92 11.54 92 18 92 C17.67 62.3 17.34 32.6 17 2 C11.39 1.67 5.78 1.34 0 1 C0 0.67 0 0.34 0 0 Z " fill="#21094A" transform="translate(317,190)"/>
<path d="M0 0 C0.79792969 0.00386719 1.59585937 0.00773438 2.41796875 0.01171875 C3.21589844 0.00785156 4.01382812 0.00398437 4.8359375 0 C10.79136108 0.01011108 10.79136108 0.01011108 11.91796875 1.13671875 C12.01316243 3.93661595 12.04350819 6.71178049 12.03149414 9.51196289 C12.03164017 10.38993027 12.03178619 11.26789764 12.03193665 12.17247009 C12.03123719 15.0889631 12.0234433 18.00539308 12.015625 20.921875 C12.01376093 22.93826767 12.01233698 24.95466079 12.01133728 26.97105408 C12.00751119 32.28937013 11.99768014 37.60765905 11.9866333 42.92596436 C11.97642113 48.34842563 11.97184008 53.77089127 11.96679688 59.19335938 C11.95605795 69.84115969 11.93846042 80.48893273 11.91796875 91.13671875 C5.64796875 91.13671875 -0.62203125 91.13671875 -7.08203125 91.13671875 C-7.10458114 79.41944744 -7.12294568 67.70219044 -7.13384342 55.98490238 C-7.13907253 50.54469563 -7.14617068 45.10450444 -7.1574707 39.66430664 C-7.1682986 34.41886173 -7.17430787 29.17343183 -7.17690849 23.92797661 C-7.17876292 21.92200929 -7.18238387 19.91604283 -7.18776131 17.91008186 C-7.19497044 15.11069051 -7.19602225 12.31136196 -7.19555664 9.51196289 C-7.19915192 8.6739917 -7.20274719 7.83602051 -7.20645142 6.97265625 C-7.19394132 0.06859689 -6.91509932 0.01174041 0 0 Z M-6.08203125 2.13671875 C-6.08203125 31.17671875 -6.08203125 60.21671875 -6.08203125 90.13671875 C-0.47203125 90.13671875 5.13796875 90.13671875 10.91796875 90.13671875 C10.94060119 79.84418067 10.95893095 69.55165924 10.96978092 59.25910187 C10.97498952 54.47936576 10.98205032 49.69964764 10.9934082 44.91992188 C11.00430912 40.30337854 11.01026082 35.68685245 11.01284599 31.07029724 C11.01468728 29.31293975 11.0182828 27.55558315 11.02369881 25.79823303 C11.03100494 23.3283589 11.03195568 20.85855515 11.03149414 18.38867188 C11.03508942 17.669375 11.03868469 16.95007813 11.04238892 16.20898438 C11.03280559 11.43964798 10.58617313 6.86013334 9.91796875 2.13671875 C4.63796875 2.13671875 -0.64203125 2.13671875 -6.08203125 2.13671875 Z " fill="#6E35C8" transform="translate(323.08203125,190.86328125)"/>
<path d="M0 0 C6.57692308 0.57692308 6.57692308 0.57692308 8 2 C8.27818549 5.2834318 8.23177691 8.58117732 8.25 11.875 C8.270625 12.79925781 8.29125 13.72351563 8.3125 14.67578125 C8.31765625 15.56394531 8.3228125 16.45210938 8.328125 17.3671875 C8.34214355 18.59091064 8.34214355 18.59091064 8.35644531 19.83935547 C7.91574855 22.51070225 7.16972032 23.41890839 5 25 C2.32520673 24.73904456 0.39904859 24.1995243 -2 23 C-2.05789006 19.54173658 -2.09355821 16.08359707 -2.125 12.625 C-2.14175781 11.64015625 -2.15851563 10.6553125 -2.17578125 9.640625 C-2.18222656 8.69960938 -2.18867188 7.75859375 -2.1953125 6.7890625 C-2.20578613 5.91975098 -2.21625977 5.05043945 -2.22705078 4.15478516 C-2 2 -2 2 0 0 Z " fill="#672AC8" transform="translate(200,287)"/>
<path d="M0 0 C0.08681476 3.62484999 0.14032721 7.24943443 0.1875 10.875 C0.22520508 12.42380859 0.22520508 12.42380859 0.26367188 14.00390625 C0.27817383 15.48310547 0.27817383 15.48310547 0.29296875 16.9921875 C0.31653442 18.35899658 0.31653442 18.35899658 0.34057617 19.75341797 C0.22818604 20.49479004 0.1157959 21.23616211 0 22 C-3 24 -3 24 -5.625 23.6875 C-8 23 -8 23 -9 22 C-9.08700342 20.36527118 -9.10701063 18.72685945 -9.09765625 17.08984375 C-9.09443359 16.10048828 -9.09121094 15.11113281 -9.08789062 14.09179688 C-9.07951172 13.05087891 -9.07113281 12.00996094 -9.0625 10.9375 C-9.05798828 9.89271484 -9.05347656 8.84792969 -9.04882812 7.77148438 C-9.03699913 5.1809334 -9.02051689 2.59049441 -9 0 C-5.93109813 -1.53445094 -3.29905734 -0.54984289 0 0 Z " fill="#6A2CD0" transform="translate(230,288)"/>
<path d="M0 0 C3.625 0.375 3.625 0.375 7 1 C7.05787784 4.62493334 7.0935542 8.24974857 7.125 11.875 C7.14175781 12.90753906 7.15851563 13.94007813 7.17578125 15.00390625 C7.18222656 15.99003906 7.18867188 16.97617187 7.1953125 17.9921875 C7.20578613 18.90339355 7.21625977 19.81459961 7.22705078 20.75341797 C7 23 7 23 5 25 C-0.56818182 24.43181818 -0.56818182 24.43181818 -2 23 C-2.25098924 19.52791193 -2.18522096 16.0425938 -2.1875 12.5625 C-2.19974609 11.58216797 -2.21199219 10.60183594 -2.22460938 9.59179688 C-2.22750977 8.18704102 -2.22750977 8.18704102 -2.23046875 6.75390625 C-2.23457764 5.89095947 -2.23868652 5.0280127 -2.24291992 4.13891602 C-2 2 -2 2 0 0 Z " fill="#6A2CCD" transform="translate(178,287)"/>
<path d="M0 0 C2.375 0.6875 2.375 0.6875 3.375 1.6875 C3.62598924 5.15958807 3.56022096 8.6449062 3.5625 12.125 C3.57474609 13.10533203 3.58699219 14.08566406 3.59960938 15.09570312 C3.60250977 16.50045898 3.60250977 16.50045898 3.60546875 17.93359375 C3.60957764 18.79654053 3.61368652 19.6594873 3.61791992 20.54858398 C3.375 22.6875 3.375 22.6875 1.375 24.6875 C-1.75 24.8125 -1.75 24.8125 -4.625 24.6875 C-6.51300288 20.91149424 -5.85304484 16.3425143 -5.875 12.1875 C-5.895625 11.21167969 -5.91625 10.23585937 -5.9375 9.23046875 C-5.94265625 8.29847656 -5.9478125 7.36648437 -5.953125 6.40625 C-5.9624707 5.54966797 -5.97181641 4.69308594 -5.98144531 3.81054688 C-5.86381836 3.10994141 -5.74619141 2.40933594 -5.625 1.6875 C-2.625 -0.3125 -2.625 -0.3125 0 0 Z " fill="#6A2CD1" transform="translate(226.625,158.3125)"/>
<path d="M0 0 C3.5 0.125 3.5 0.125 4.5 1.125 C4.58713831 2.83272358 4.60700007 4.54398649 4.59765625 6.25390625 C4.59443359 7.28837891 4.59121094 8.32285156 4.58789062 9.38867188 C4.57951172 10.47728516 4.57113281 11.56589844 4.5625 12.6875 C4.55798828 13.77998047 4.55347656 14.87246094 4.54882812 15.99804688 C4.53699826 18.70708495 4.52051543 21.41601599 4.5 24.125 C1.86 24.125 -0.78 24.125 -3.5 24.125 C-4.71858107 21.68783785 -4.62925575 20.09225943 -4.6328125 17.37109375 C-4.63410156 16.43458984 -4.63539063 15.49808594 -4.63671875 14.53320312 C-4.63285156 13.55287109 -4.62898437 12.57253906 -4.625 11.5625 C-4.62886719 10.57830078 -4.63273438 9.59410156 -4.63671875 8.58007812 C-4.63542969 7.64486328 -4.63414062 6.70964844 -4.6328125 5.74609375 C-4.63168457 4.8842749 -4.63055664 4.02245605 -4.62939453 3.13452148 C-4.40310049 -0.37986762 -3.6534988 0.1304821 0 0 Z " fill="#692CCC" transform="translate(180.5,158.875)"/>
<path d="M0 0 C0.99 0.33 1.98 0.66 3 1 C3.02317537 13.54360118 3.04094162 26.08719727 3.05181217 38.63081551 C3.05702961 44.4553821 3.06410663 50.27993403 3.07543945 56.10449219 C3.08630873 61.72602355 3.09228543 67.34754082 3.09487724 72.96908188 C3.09672419 75.11326189 3.1003308 77.25744113 3.10573006 79.40161514 C3.11299405 82.40594395 3.11398867 85.4102146 3.11352539 88.41455078 C3.11712067 89.30000076 3.12071594 90.18545074 3.12442017 91.09773254 C3.11705494 95.51484493 2.89281314 99.65116008 2 104 C1.34 104 0.68 104 0 104 C0 69.68 0 35.36 0 0 Z " fill="#25124B" transform="translate(364,178)"/>
<path d="M0 0 C3.29714793 0.32971479 4.6226839 0.6226839 7 3 C7.25878906 5.03125 7.25878906 5.03125 7.265625 7.5 C7.26820313 8.386875 7.27078125 9.27375 7.2734375 10.1875 C7.26570312 11.115625 7.25796875 12.04375 7.25 13 C7.25773438 13.928125 7.26546875 14.85625 7.2734375 15.8125 C7.27085937 16.699375 7.26828125 17.58625 7.265625 18.5 C7.26336914 19.3146875 7.26111328 20.129375 7.25878906 20.96875 C7 23 7 23 5 25 C1.875 25.125 1.875 25.125 -1 25 C-2.88519529 21.22960943 -2.18475994 16.64845405 -2.1875 12.5 C-2.19974609 11.52417969 -2.21199219 10.54835937 -2.22460938 9.54296875 C-2.22654297 8.61097656 -2.22847656 7.67898437 -2.23046875 6.71875 C-2.23457764 5.86216797 -2.23868652 5.00558594 -2.24291992 4.12304688 C-2 2 -2 2 0 0 Z " fill="#742CE6" transform="translate(201,158)"/>
<path d="M0 0 C0.89460937 -0.00128906 1.78921875 -0.00257813 2.7109375 -0.00390625 C3.65195313 -0.00003906 4.59296875 0.00382813 5.5625 0.0078125 C6.97402344 0.00201172 6.97402344 0.00201172 8.4140625 -0.00390625 C9.75597656 -0.00197266 9.75597656 -0.00197266 11.125 0 C11.95128906 0.00112793 12.77757812 0.00225586 13.62890625 0.00341797 C15.5625 0.1328125 15.5625 0.1328125 16.5625 1.1328125 C16.8125 4.0703125 16.8125 4.0703125 16.5625 7.1328125 C12.47986982 9.85456595 9.29107759 9.46404228 4.5 9.4453125 C3.67177734 9.46142578 2.84355469 9.47753906 1.99023438 9.49414062 C0.80204102 9.49510742 0.80204102 9.49510742 -0.41015625 9.49609375 C-1.13468994 9.49907471 -1.85922363 9.50205566 -2.60571289 9.50512695 C-4.4375 9.1328125 -4.4375 9.1328125 -6.4375 6.1328125 C-5.8048979 0.81895488 -5.23113227 0.00714078 0 0 Z " fill="#6D2ED5" transform="translate(136.4375,252.8671875)"/>
<path d="M0 0 C0.84175781 -0.00257813 1.68351562 -0.00515625 2.55078125 -0.0078125 C3.87142578 0.00378906 3.87142578 0.00378906 5.21875 0.015625 C6.09917969 0.00789062 6.97960937 0.00015625 7.88671875 -0.0078125 C8.72847656 -0.00523437 9.57023437 -0.00265625 10.4375 0 C11.59668945 0.00338379 11.59668945 0.00338379 12.77929688 0.00683594 C14.71875 0.265625 14.71875 0.265625 16.71875 2.265625 C16.96875 4.765625 16.96875 4.765625 16.71875 7.265625 C14.31045208 9.67392292 13.72591444 9.52165079 10.4375 9.53125 C9.59574219 9.53382813 8.75398438 9.53640625 7.88671875 9.5390625 C6.56607422 9.52746094 6.56607422 9.52746094 5.21875 9.515625 C4.33832031 9.52335938 3.45789063 9.53109375 2.55078125 9.5390625 C1.70902344 9.53648437 0.86726563 9.53390625 0 9.53125 C-0.77279297 9.52899414 -1.54558594 9.52673828 -2.34179688 9.52441406 C-4.28125 9.265625 -4.28125 9.265625 -6.28125 7.265625 C-6.53125 4.765625 -6.53125 4.765625 -6.28125 2.265625 C-3.87295208 -0.14267292 -3.28841444 0.00959921 0 0 Z " fill="#722BE6" transform="translate(259.28125,207.734375)"/>
<path d="M0 0 C0.84175781 -0.00257813 1.68351562 -0.00515625 2.55078125 -0.0078125 C3.87142578 0.00378906 3.87142578 0.00378906 5.21875 0.015625 C6.09917969 0.00789062 6.97960937 0.00015625 7.88671875 -0.0078125 C8.72847656 -0.00523437 9.57023437 -0.00265625 10.4375 0 C11.59668945 0.00338379 11.59668945 0.00338379 12.77929688 0.00683594 C14.71875 0.265625 14.71875 0.265625 16.71875 2.265625 C16.96875 4.765625 16.96875 4.765625 16.71875 7.265625 C14.3597426 9.6246324 13.8891266 9.52129379 10.69140625 9.53125 C9.89927734 9.53382813 9.10714844 9.53640625 8.29101562 9.5390625 C7.46279297 9.53132813 6.63457031 9.52359375 5.78125 9.515625 C4.95689453 9.52335937 4.13253906 9.53109375 3.28320312 9.5390625 C2.48978516 9.53648437 1.69636719 9.53390625 0.87890625 9.53125 C0.15324463 9.52899414 -0.57241699 9.52673828 -1.32006836 9.52441406 C-3.28125 9.265625 -3.28125 9.265625 -6.28125 7.265625 C-6.59375 4.765625 -6.59375 4.765625 -6.28125 2.265625 C-3.87295208 -0.14267292 -3.28841444 0.00959921 0 0 Z " fill="#722CE3" transform="translate(259.28125,252.734375)"/>
<path d="M0 0 C0.89460937 -0.00128906 1.78921875 -0.00257813 2.7109375 -0.00390625 C3.65195313 -0.00003906 4.59296875 0.00382813 5.5625 0.0078125 C6.97402344 0.00201172 6.97402344 0.00201172 8.4140625 -0.00390625 C9.75597656 -0.00197266 9.75597656 -0.00197266 11.125 0 C11.95128906 0.00112793 12.77757812 0.00225586 13.62890625 0.00341797 C15.5625 0.1328125 15.5625 0.1328125 16.5625 1.1328125 C16.8125 4.0703125 16.8125 4.0703125 16.5625 7.1328125 C12.71931569 9.69493537 9.51556045 9.46389789 5.0625 9.4453125 C3.90427734 9.46948242 3.90427734 9.46948242 2.72265625 9.49414062 C-2.9631124 9.49906763 -2.9631124 9.49906763 -5.19726562 7.77416992 C-6.4375 6.1328125 -6.4375 6.1328125 -6.1875 3.5078125 C-4.9557901 -0.39260218 -3.87585448 0.00529075 0 0 Z " fill="#6931CB" transform="translate(136.4375,230.8671875)"/>
<path d="M0 0 C1.19496094 -0.00386719 1.19496094 -0.00386719 2.4140625 -0.0078125 C3.24679688 -0.00007812 4.07953125 0.00765625 4.9375 0.015625 C5.77023438 0.00789062 6.60296875 0.00015625 7.4609375 -0.0078125 C8.25757813 -0.00523437 9.05421875 -0.00265625 9.875 0 C10.60589844 0.00225586 11.33679688 0.00451172 12.08984375 0.00683594 C13.9375 0.265625 13.9375 0.265625 15.9375 2.265625 C16.0625 5.390625 16.0625 5.390625 15.9375 8.265625 C12.4014604 10.0336448 8.33178745 9.45027413 4.4375 9.453125 C3.55707031 9.46537109 2.67664063 9.47761719 1.76953125 9.49023438 C0.92777344 9.49216797 0.08601562 9.49410156 -0.78125 9.49609375 C-1.55404297 9.50020264 -2.32683594 9.50431152 -3.12304688 9.50854492 C-5.0625 9.265625 -5.0625 9.265625 -7.0625 7.265625 C-6.55107095 2.15133455 -5.23424903 0.01615509 0 0 Z " fill="#732CE3" transform="translate(137.0625,207.734375)"/>
<path d="M0 0 C0.88494141 -0.01224609 1.76988281 -0.02449219 2.68164062 -0.03710938 C3.52791016 -0.03904297 4.37417969 -0.04097656 5.24609375 -0.04296875 C6.02525146 -0.04707764 6.80440918 -0.05118652 7.60717773 -0.05541992 C9.5625 0.1875 9.5625 0.1875 11.5625 2.1875 C11.875 4.6875 11.875 4.6875 11.5625 7.1875 C7.47986982 9.90925345 4.29107759 9.51872978 -0.5 9.5 C-1.32822266 9.51611328 -2.15644531 9.53222656 -3.00976562 9.54882812 C-4.19795898 9.54979492 -4.19795898 9.54979492 -5.41015625 9.55078125 C-6.13468994 9.55376221 -6.85922363 9.55674316 -7.60571289 9.55981445 C-9.4375 9.1875 -9.4375 9.1875 -11.4375 6.1875 C-10.52291294 -1.49503127 -6.72061748 0.00487354 0 0 Z " fill="#722CE1" transform="translate(264.4375,230.8125)"/>
<path d="M0 0 C0.99 0.33 1.98 0.66 3 1 C2.67 30.7 2.34 60.4 2 91 C1.01 90.67 0.02 90.34 -1 90 C-0.67 60.3 -0.34 30.6 0 0 Z " fill="#231144" transform="translate(314,191)"/>
<path d="M0 0 C3.79165074 -0.0289337 7.58327327 -0.04677601 11.375 -0.0625 C12.45523437 -0.07087891 13.53546875 -0.07925781 14.6484375 -0.08789062 C16.1953125 -0.09272461 16.1953125 -0.09272461 17.7734375 -0.09765625 C18.72653809 -0.10289307 19.67963867 -0.10812988 20.66162109 -0.11352539 C23 0 23 0 25 1 C25 38.29 25 75.58 25 114 C24.67 114 24.34 114 24 114 C24 82.32 24 50.64 24 18 C23.01 18 22.02 18 21 18 C21 17.34 21 16.68 21 16 C21.66 16 22.32 16 23 16 C23 12.04 23 8.08 23 4 C22.01 4 21.02 4 20 4 C19.67 3.34 19.34 2.68 19 2 C12.73 1.67 6.46 1.34 0 1 C0 0.67 0 0.34 0 0 Z " fill="#5D2CAB" transform="translate(285,168)"/>
<path d="M0 0 C1.18774602 3.56323805 1.1055318 6.36802118 1.08178711 10.13012695 C1.07872055 10.85244507 1.07565399 11.57476318 1.07249451 12.31896973 C1.06534281 13.88715535 1.05595455 15.45533199 1.04459953 17.02349281 C1.02720604 19.50795206 1.0169085 21.99234692 1.00868225 24.47685242 C0.98423504 31.54086402 0.94873245 38.60478913 0.90405273 45.66870117 C0.87721529 49.99042881 0.86020706 54.3121061 0.84918404 58.6339016 C0.84298855 60.2784937 0.83300117 61.92307616 0.81910515 63.56762123 C0.79980933 65.87237491 0.79298163 68.17686565 0.78881836 70.48168945 C0.78136093 71.79168411 0.7739035 73.10167877 0.76622009 74.45137024 C0.99833109 77.97466697 1.72216332 80.7236948 3 84 C1.68 83.67 0.36 83.34 -1 83 C-1 62.54 -1 42.08 -1 21 C-2.32 21.99 -3.64 22.98 -5 24 C-7.29003906 24.34057617 -7.29003906 24.34057617 -9.765625 24.29296875 C-10.65507812 24.28330078 -11.54453125 24.27363281 -12.4609375 24.26367188 C-13.38132813 24.23853516 -14.30171875 24.21339844 -15.25 24.1875 C-16.18585938 24.17396484 -17.12171875 24.16042969 -18.0859375 24.14648438 C-20.39121327 24.11119954 -22.6953106 24.06190281 -25 24 C-25 23.67 -25 23.34 -25 23 C-15.1 22.505 -15.1 22.505 -5 22 C-5 20.02 -5 18.04 -5 16 C-4.34 16 -3.68 16 -3 16 C-2.67 16.99 -2.34 17.98 -2 19 C-1.93941406 17.71222656 -1.87882812 16.42445313 -1.81640625 15.09765625 C-1.73201753 13.41925841 -1.6473687 11.74087364 -1.5625 10.0625 C-1.52318359 9.21236328 -1.48386719 8.36222656 -1.44335938 7.48632812 C-1.40146484 6.67744141 -1.35957031 5.86855469 -1.31640625 5.03515625 C-1.27974854 4.2862915 -1.24309082 3.53742676 -1.20532227 2.76586914 C-1 1 -1 1 0 0 Z " fill="#1A073D" transform="translate(158,194)"/>
<path d="M0 0 C0.33 0 0.66 0 1 0 C1 33.66 1 67.32 1 102 C0.67 102 0.34 102 0 102 C0 71.31 0 40.62 0 9 C-0.99 8.67 -1.98 8.34 -3 8 C-3 7.34 -3 6.68 -3 6 C-2.34 5.67 -1.68 5.34 -1 5 C-0.34444881 2.47266765 -0.34444881 2.47266765 0 0 Z " fill="#0E0A1E" transform="translate(339,178)"/>
<path d="M0 0 C0.99 0.33 1.98 0.66 3 1 C2.34 1.66 1.68 2.32 1 3 C0.67 3.66 0.34 4.32 0 5 C-1.32 5 -2.64 5 -4 5 C-3.979375 5.804375 -3.95875 6.60875 -3.9375 7.4375 C-4 10 -4 10 -5 11 C-5.09443335 13.30053835 -5.11742128 15.60402173 -5.11352539 17.90649414 C-5.11367142 18.62840439 -5.11381744 19.35031464 -5.1139679 20.09410095 C-5.11326869 22.49114947 -5.10547595 24.88812123 -5.09765625 27.28515625 C-5.0957921 28.94282489 -5.09436818 30.60049407 -5.09336853 32.25816345 C-5.08954312 36.62954214 -5.07971265 41.00088781 -5.06866455 45.37225342 C-5.05845092 49.82954461 -5.05387101 54.28684111 -5.04882812 58.74414062 C-5.0380904 67.49610893 -5.02101371 76.24805036 -5 85 C-7.89262121 82.10737879 -7.26044448 80.01763156 -7.2746582 75.9675293 C-7.27976913 75.24375092 -7.28488007 74.51997253 -7.29014587 73.77426147 C-7.30408046 71.3741638 -7.30308179 68.97435215 -7.30078125 66.57421875 C-7.30466702 64.90753573 -7.30900144 63.24085371 -7.31376648 61.57417297 C-7.32123769 58.07619014 -7.32093162 54.5783082 -7.31567383 51.08032227 C-7.30988814 46.60118366 -7.3267838 42.12245977 -7.3500185 37.6433897 C-7.36476626 34.19895518 -7.36562596 30.75462018 -7.36250877 27.31015968 C-7.3630218 25.65916945 -7.36825605 24.00817361 -7.37832069 22.35721397 C-7.39068363 20.04475567 -7.38389409 17.73310015 -7.37231445 15.4206543 C-7.37294388 14.10542282 -7.3735733 12.79019135 -7.3742218 11.43510437 C-6.87232947 6.82807047 -5.34346327 4.25949682 -2 1.125 C-1.34 0.75375 -0.68 0.3825 0 0 Z " fill="#6432B5" transform="translate(165,189)"/>
<path d="M0 0 C0.33 0 0.66 0 1 0 C1.16726689 4.39635047 1.32786093 8.79287761 1.48217773 13.18969727 C1.53566434 14.68650938 1.5909987 16.18325663 1.64819336 17.67993164 C1.72991956 19.82684332 1.8050746 21.97389793 1.87890625 24.12109375 C1.94960327 26.06133423 1.94960327 26.06133423 2.02172852 28.04077148 C2 31 2 31 1 32 C-1.23929886 32.09436529 -3.4816175 32.11742327 -5.72290039 32.11352539 C-6.4253035 32.11367142 -7.1277066 32.11381744 -7.85139465 32.1139679 C-10.18351278 32.11326872 -12.515552 32.10547617 -14.84765625 32.09765625 C-16.46048438 32.09579208 -18.07331307 32.09436818 -19.68614197 32.09336853 C-23.93915357 32.08954323 -28.19213124 32.07971285 -32.44512939 32.06866455 C-36.7817743 32.05845069 -41.11842467 32.05387096 -45.45507812 32.04882812 C-53.97006769 32.03809059 -62.48502963 32.02101403 -71 32 C-71 31.67 -71 31.34 -71 31 C-36.35 30.505 -36.35 30.505 -1 30 C-0.67 20.1 -0.34 10.2 0 0 Z " fill="#7032D0" transform="translate(240,242)"/>
<path d="M0 0 C0.33 0 0.66 0 1 0 C1.11596065 9.93580302 1.20474917 19.87144449 1.25906086 29.80778694 C1.28513082 34.42190617 1.32048088 39.03556169 1.37719727 43.64941406 C1.43161055 48.10389626 1.46144011 52.55793307 1.47438622 57.01272202 C1.48360945 58.71039718 1.50162076 60.40804856 1.52865028 62.1055336 C1.56506643 64.48771669 1.5699404 66.86807066 1.56762695 69.25048828 C1.58560333 69.94892349 1.60357971 70.6473587 1.62210083 71.36695862 C1.58208467 75.18696256 0.92613121 77.54649441 -1.41047668 80.48434448 C-4 83 -4 83 -6 83 C-5.67 81.68 -5.34 80.36 -5 79 C-4.34 79.33 -3.68 79.66 -3 80 C-3.33 78.68 -3.66 77.36 -4 76 C-3.01 76 -2.02 76 -1 76 C-0.505 38.38 -0.505 38.38 0 0 Z " fill="#7339CE" transform="translate(247,197)"/>
<path d="M0 0 C9.26663335 -0.11606386 18.5330149 -0.20480086 27.80021763 -0.25906086 C32.10380873 -0.28510864 36.40690102 -0.32041735 40.71020508 -0.37719727 C44.86643789 -0.43169086 49.0221922 -0.46145677 53.17875481 -0.47438622 C54.76117417 -0.48359517 56.34356858 -0.50157853 57.92578316 -0.52865028 C71.86688777 -0.75760626 71.86688777 -0.75760626 76.52709961 2.28051758 C79 5 79 5 79 9 C78.01 9 77.02 9 76 9 C76 8.34 76 7.68 76 7 C75.34 7 74.68 7 74 7 C74 6.01 74 5.02 74 4 C70.38613393 1.74405573 67.32762863 1.72655714 63.12011719 1.68115234 C62.43678314 1.67110672 61.7534491 1.6610611 61.04940796 1.65071106 C58.79857192 1.61990602 56.54785469 1.60285171 54.296875 1.5859375 C52.73316426 1.56722366 51.1694636 1.54765008 49.60577393 1.5272522 C45.49591006 1.47594767 41.38601345 1.43631305 37.27600098 1.39910889 C33.07975173 1.35905867 28.88363844 1.30797098 24.6875 1.2578125 C16.45842625 1.16107311 8.22928516 1.07666206 0 1 C0 0.67 0 0.34 0 0 Z " fill="#5F2CAF" transform="translate(168,188)"/>
<path d="M0 0 C0.99 0 1.98 0 3 0 C3.33 0.66 3.66 1.32 4 2 C6.02463255 2.65213292 6.02463255 2.65213292 8 3 C8 3.66 8 4.32 8 5 C43.64 4.505 43.64 4.505 80 4 C79.67 4.66 79.34 5.32 79 6 C69.58567289 6.09278723 60.17150382 6.16380901 50.75681877 6.20724869 C46.38491509 6.22810038 42.01332486 6.25637342 37.64160156 6.30175781 C33.42055313 6.34530247 29.19980571 6.3691553 24.97854996 6.37950897 C23.37021269 6.38688494 21.76189141 6.40128867 20.15368271 6.42292023 C17.89620453 6.45207012 15.63996111 6.45595137 13.38232422 6.45410156 C11.45705399 6.46742523 11.45705399 6.46742523 9.4928894 6.48101807 C5.37871237 5.9144403 3.18132919 4.62744098 0 2 C0 1.34 0 0.68 0 0 Z " fill="#6832C4" transform="translate(161,276)"/>
<path d="M0 0 C3.29714793 0.32971479 4.6226839 0.6226839 7 3 C7.25878906 5.03125 7.25878906 5.03125 7.265625 7.5 C7.26820313 8.386875 7.27078125 9.27375 7.2734375 10.1875 C7.26570312 11.115625 7.25796875 12.04375 7.25 13 C7.25773438 13.928125 7.26546875 14.85625 7.2734375 15.8125 C7.27085937 16.699375 7.26828125 17.58625 7.265625 18.5 C7.26336914 19.3146875 7.26111328 20.129375 7.25878906 20.96875 C7 23 7 23 5 25 C1.875 25.125 1.875 25.125 -1 25 C-2.88519529 21.22960943 -2.18475994 16.64845405 -2.1875 12.5 C-2.19974609 11.52417969 -2.21199219 10.54835937 -2.22460938 9.54296875 C-2.22654297 8.61097656 -2.22847656 7.67898437 -2.23046875 6.71875 C-2.23457764 5.86216797 -2.23868652 5.00558594 -2.24291992 4.12304688 C-2 2 -2 2 0 0 Z M-1 3 C-1.02689449 5.95839355 -1.04678741 8.91654427 -1.0625 11.875 C-1.07087891 12.71675781 -1.07925781 13.55851563 -1.08789062 14.42578125 C-1.09111328 15.23144531 -1.09433594 16.03710938 -1.09765625 16.8671875 C-1.10289307 17.61081543 -1.10812988 18.35444336 -1.11352539 19.12060547 C-1.11786636 21.09132568 -1.11786636 21.09132568 0 23 C1.65 23 3.3 23 5 23 C5 22.01 5 21.02 5 20 C5.01160156 18.75992188 5.02320313 17.51984375 5.03515625 16.2421875 C5.04443685 14.78645938 5.0535456 13.33073016 5.0625 11.875 C5.07087891 11.13378906 5.07925781 10.39257812 5.08789062 9.62890625 C5.096467 7.75239506 5.05245519 5.8757975 5 4 C3.93354885 2.70366379 3.93354885 2.70366379 1.4375 2.9375 C0.633125 2.958125 -0.17125 2.97875 -1 3 Z " fill="#6630BF" transform="translate(201,158)"/>
<path d="M0 0 C0.71259476 -0.00014603 1.42518951 -0.00029205 2.15937805 -0.0004425 C4.50765051 0.00025248 6.85584301 0.00802545 9.20410156 0.01586914 C10.83506222 0.01773479 12.46602344 0.019158 14.09698486 0.02015686 C18.38447626 0.02397045 22.67193364 0.03379085 26.95941162 0.04486084 C31.33654317 0.05509986 35.71368023 0.05965982 40.09082031 0.06469727 C48.67547132 0.07541416 57.26009471 0.09247667 65.84472656 0.11352539 C65.84472656 0.44352539 65.84472656 0.77352539 65.84472656 1.11352539 C64.96855682 1.11939163 64.09238708 1.12525787 63.18966675 1.13130188 C54.92088382 1.18927519 46.65236968 1.26137855 38.38384819 1.3492403 C34.13319683 1.3939126 29.88264063 1.43317552 25.63183594 1.45996094 C21.52733004 1.48602545 17.42319091 1.52644978 13.31891251 1.57671165 C11.75532732 1.59335916 10.19167873 1.60488662 8.62801743 1.6111393 C6.43277554 1.62080377 4.23846744 1.64888895 2.04345703 1.68115234 C0.79547333 1.6922554 -0.45251038 1.70335846 -1.73831177 1.71479797 C-6.70105578 2.29390371 -10.05440781 4.37961497 -14.15527344 7.11352539 C-14.15527344 6.12352539 -14.15527344 5.13352539 -14.15527344 4.11352539 C-13.49527344 4.11352539 -12.83527344 4.11352539 -12.15527344 4.11352539 C-11.82527344 3.12352539 -11.49527344 2.13352539 -11.15527344 1.11352539 C-7.63894773 -0.36764294 -3.75259496 -0.00646999 0 0 Z " fill="#0F002E" transform="translate(173.1552734375,186.886474609375)"/>
<path d="M0 0 C5.28 0 10.56 0 16 0 C16 0.99 16 1.98 16 3 C13.69 3 11.38 3 9 3 C9 10.59 9 18.18 9 26 C8.67 26 8.34 26 8 26 C8 19.07 8 12.14 8 5 C5.03 5 2.06 5 -1 5 C-0.67 3.35 -0.34 1.7 0 0 Z " fill="#120B29" transform="translate(222,283)"/>
<path d="M0 0 C0.99 0.66 1.98 1.32 3 2 C3.26464844 4.19897461 3.26464844 4.19897461 3.109375 6.90234375 C3.05910156 7.87494141 3.00882813 8.84753906 2.95703125 9.84960938 C2.88871094 10.86861328 2.82039062 11.88761719 2.75 12.9375 C2.69714844 13.95263672 2.64429688 14.96777344 2.58984375 16.01367188 C2.16315218 23.51054345 2.16315218 23.51054345 1 27 C-2.3125 27.6875 -2.3125 27.6875 -6 28 C-7.7121582 26.8659668 -7.7121582 26.8659668 -9 25 C-9.34057617 22.45629883 -9.34057617 22.45629883 -9.29296875 19.45703125 C-9.28330078 18.38388672 -9.27363281 17.31074219 -9.26367188 16.20507812 C-9.23853516 15.08552734 -9.21339844 13.96597656 -9.1875 12.8125 C-9.16719727 11.11577148 -9.16719727 11.11577148 -9.14648438 9.38476562 C-9.11109958 6.58936683 -9.06172948 3.79492108 -9 1 C-5.98131566 -0.50934217 -3.32702771 -0.17510672 0 0 Z M-8 3 C-8.43199491 5.19094586 -8.43199491 5.19094586 -8.328125 7.71875 C-8.32296875 8.65074219 -8.3178125 9.58273438 -8.3125 10.54296875 C-8.291875 11.51878906 -8.27125 12.49460938 -8.25 13.5 C-8.24484375 14.47582031 -8.2396875 15.45164063 -8.234375 16.45703125 C-8.36713897 21.39017559 -8.36713897 21.39017559 -7 26 C-4.08347826 26.16681109 -4.08347826 26.16681109 -1 26 C1.93872655 23.06127345 1.29169002 20.4763338 1.32226562 16.45703125 C1.31904297 15.48121094 1.31582031 14.50539062 1.3125 13.5 C1.32861328 12.52417969 1.34472656 11.54835937 1.36132812 10.54296875 C1.36197266 9.61097656 1.36261719 8.67898437 1.36328125 7.71875 C1.36626221 6.86216797 1.36924316 6.00558594 1.37231445 5.12304688 C1.24945068 4.42244141 1.12658691 3.72183594 1 3 C-3.01009099 0.32660601 -3.98990901 0.32660601 -8 3 Z " fill="#180736" transform="translate(229,157)"/>
<path d="M0 0 C0.78552246 0.01047363 1.57104492 0.02094727 2.38037109 0.03173828 C3.23115234 0.03818359 4.08193359 0.04462891 4.95849609 0.05126953 C6.29267578 0.07640625 6.29267578 0.07640625 7.65380859 0.10205078 C8.99958984 0.11558594 8.99958984 0.11558594 10.37255859 0.12939453 C12.59157445 0.15300108 14.81005937 0.18592768 17.02880859 0.22705078 C17.02880859 0.55705078 17.02880859 0.88705078 17.02880859 1.22705078 C11.08880859 1.55705078 5.14880859 1.88705078 -0.97119141 2.22705078 C-0.97119141 3.54705078 -0.97119141 4.86705078 -0.97119141 6.22705078 C5.29880859 6.55705078 11.56880859 6.88705078 18.02880859 7.22705078 C17.69880859 7.88705078 17.36880859 8.54705078 17.02880859 9.22705078 C13.90388608 9.28496922 10.77910094 9.32061824 7.65380859 9.35205078 C6.76435547 9.36880859 5.87490234 9.38556641 4.95849609 9.40283203 C4.10771484 9.40927734 3.25693359 9.41572266 2.38037109 9.42236328 C1.2020874 9.43807373 1.2020874 9.43807373 0 9.45410156 C-1.97119141 9.22705078 -1.97119141 9.22705078 -3.97119141 7.22705078 C-4.22119141 4.72705078 -4.22119141 4.72705078 -3.97119141 2.22705078 C-1.97119141 0.22705078 -1.97119141 0.22705078 0 0 Z " fill="#7131D0" transform="translate(256.97119140625,207.77294921875)"/>
<path d="M0 0 C1.19496094 -0.00386719 1.19496094 -0.00386719 2.4140625 -0.0078125 C3.24679688 -0.00007812 4.07953125 0.00765625 4.9375 0.015625 C5.77023438 0.00789062 6.60296875 0.00015625 7.4609375 -0.0078125 C8.25757813 -0.00523437 9.05421875 -0.00265625 9.875 0 C10.60589844 0.00225586 11.33679688 0.00451172 12.08984375 0.00683594 C13.9375 0.265625 13.9375 0.265625 15.9375 2.265625 C16.0625 5.390625 16.0625 5.390625 15.9375 8.265625 C12.4014604 10.0336448 8.33178745 9.45027413 4.4375 9.453125 C3.55707031 9.46537109 2.67664063 9.47761719 1.76953125 9.49023438 C0.92777344 9.49216797 0.08601562 9.49410156 -0.78125 9.49609375 C-1.55404297 9.50020264 -2.32683594 9.50431152 -3.12304688 9.50854492 C-5.0625 9.265625 -5.0625 9.265625 -7.0625 7.265625 C-6.55107095 2.15133455 -5.23424903 0.01615509 0 0 Z M-3.0625 1.265625 C-3.0625 1.925625 -3.0625 2.585625 -3.0625 3.265625 C-3.7225 3.265625 -4.3825 3.265625 -5.0625 3.265625 C-4.7325 4.915625 -4.4025 6.565625 -4.0625 8.265625 C-1.62492587 8.29260922 0.81234915 8.31245599 3.25 8.328125 C3.94029297 8.33650391 4.63058594 8.34488281 5.34179688 8.35351562 C8.4858025 8.36870406 10.93170019 8.26755827 13.9375 7.265625 C13.9375 5.285625 13.9375 3.305625 13.9375 1.265625 C8.3275 1.265625 2.7175 1.265625 -3.0625 1.265625 Z " fill="#6132B7" transform="translate(137.0625,207.734375)"/>
<path d="M0 0 C0.69802734 0.00386719 1.39605469 0.00773438 2.11523438 0.01171875 C2.80939453 0.00785156 3.50355469 0.00398437 4.21875 0 C9.42445449 0.01007881 9.42445449 0.01007881 11.67773438 1.13671875 C11.67773438 2.12671875 11.67773438 3.11671875 11.67773438 4.13671875 C5.73773438 4.13671875 -0.20226562 4.13671875 -6.32226562 4.13671875 C-6.32226562 -0.88425355 -4.50974595 0.00874829 0 0 Z " fill="#752AE8" transform="translate(139.322265625,232.86328125)"/>
<path d="M0 0 C7.26 0 14.52 0 22 0 C23.49297212 2.98594424 23.11755228 5.70853624 23 9 C22.67 9.66 22.34 10.32 22 11 C20.68 10.67 19.36 10.34 18 10 C18.66 9.67 19.32 9.34 20 9 C20 7.02 20 5.04 20 3 C13.4 2.67 6.8 2.34 0 2 C0 1.34 0 0.68 0 0 Z " fill="#1C093A" transform="translate(132,251)"/>
<path d="M0 0 C0.88494141 -0.01224609 1.76988281 -0.02449219 2.68164062 -0.03710938 C3.52791016 -0.03904297 4.37417969 -0.04097656 5.24609375 -0.04296875 C6.02525146 -0.04707764 6.80440918 -0.05118652 7.60717773 -0.05541992 C9.5625 0.1875 9.5625 0.1875 11.5625 2.1875 C11.875 4.6875 11.875 4.6875 11.5625 7.1875 C8.46164429 9.25473714 7.83318319 9.43247423 4.33203125 9.3828125 C3.12836914 9.37314453 3.12836914 9.37314453 1.90039062 9.36328125 C1.06701172 9.34652344 0.23363281 9.32976562 -0.625 9.3125 C-1.46998047 9.30347656 -2.31496094 9.29445312 -3.18554688 9.28515625 C-5.26965243 9.26160703 -7.35361217 9.22573647 -9.4375 9.1875 C-9.4375 8.8575 -9.4375 8.5275 -9.4375 8.1875 C-3.4975 7.8575 2.4425 7.5275 8.5625 7.1875 C8.5625 5.5375 8.5625 3.8875 8.5625 2.1875 C5.79063012 2.07962182 3.02294463 2.00026673 0.25 1.9375 C-0.92852539 1.88722656 -0.92852539 1.88722656 -2.13085938 1.8359375 C-4.30410547 1.79894608 -6.29719901 1.80382366 -8.4375 2.1875 C-10.53406653 4.0301752 -10.53406653 4.0301752 -11.4375 6.1875 C-10.07087085 -1.42657667 -7.05519871 0.00511617 0 0 Z " fill="#5F2DB0" transform="translate(264.4375,230.8125)"/>
<path d="M0 0 C0.78552246 0.01047363 1.57104492 0.02094727 2.38037109 0.03173828 C3.23115234 0.03818359 4.08193359 0.04462891 4.95849609 0.05126953 C6.29267578 0.07640625 6.29267578 0.07640625 7.65380859 0.10205078 C8.99958984 0.11558594 8.99958984 0.11558594 10.37255859 0.12939453 C12.59157445 0.15300108 14.81005937 0.18592768 17.02880859 0.22705078 C17.02880859 0.55705078 17.02880859 0.88705078 17.02880859 1.22705078 C11.08880859 1.55705078 5.14880859 1.88705078 -0.97119141 2.22705078 C-0.64119141 3.87705078 -0.31119141 5.52705078 0.02880859 7.22705078 C5.96880859 7.22705078 11.90880859 7.22705078 18.02880859 7.22705078 C17.69880859 7.88705078 17.36880859 8.54705078 17.02880859 9.22705078 C14.09106396 9.28095435 11.15430627 9.32067628 8.21630859 9.35205078 C7.38292969 9.36880859 6.54955078 9.38556641 5.69091797 9.40283203 C4.88847656 9.40927734 4.08603516 9.41572266 3.25927734 9.42236328 C2.15169067 9.43807373 2.15169067 9.43807373 1.02172852 9.45410156 C-0.97119141 9.22705078 -0.97119141 9.22705078 -3.97119141 7.22705078 C-4.28369141 4.72705078 -4.28369141 4.72705078 -3.97119141 2.22705078 C-1.97119141 0.22705078 -1.97119141 0.22705078 0 0 Z " fill="#6431B7" transform="translate(256.97119140625,252.77294921875)"/>
<path d="M0 0 C0.33 0 0.66 0 1 0 C1.01981934 1.15000488 1.03963867 2.30000977 1.06005859 3.48486328 C1.13636046 7.76779385 1.22503946 12.05039556 1.31738281 16.33300781 C1.35557122 18.18352751 1.39044151 20.03411887 1.421875 21.88476562 C1.46774641 24.55104107 1.52570359 27.21682748 1.5859375 29.8828125 C1.59748871 30.70492218 1.60903992 31.52703186 1.62094116 32.37405396 C1.73747288 36.95068528 2.27244426 40.69020304 4 45 C2.68 44.67 1.36 44.34 0 44 C0 29.48 0 14.96 0 0 Z " fill="#1A083B" transform="translate(157,233)"/>
<path d="M0 0 C3.81248426 -0.02887236 7.6249407 -0.04675492 11.4375 -0.0625 C12.52611328 -0.07087891 13.61472656 -0.07925781 14.73632812 -0.08789062 C15.77080078 -0.09111328 16.80527344 -0.09433594 17.87109375 -0.09765625 C18.82943115 -0.10289307 19.78776855 -0.10812988 20.77514648 -0.11352539 C23 0 23 0 24 1 C24.07325168 3.86267567 24.09238205 6.700719 24.0625 9.5625 C24.05798828 10.36880859 24.05347656 11.17511719 24.04882812 12.00585938 C24.03700518 14.00393756 24.01906914 16.00197783 24 18 C23.01 18 22.02 18 21 18 C21 17.34 21 16.68 21 16 C21.66 16 22.32 16 23 16 C23 12.04 23 8.08 23 4 C22.01 4 21.02 4 20 4 C19.67 3.34 19.34 2.68 19 2 C12.73 1.67 6.46 1.34 0 1 C0 0.67 0 0.34 0 0 Z " fill="#682DC8" transform="translate(285,168)"/>
<path d="M0 0 C7.59 0.33 15.18 0.66 23 1 C23 1.33 23 1.66 23 2 C18.38 2 13.76 2 9 2 C9 2.99 9 3.98 9 5 C4.71 5 0.42 5 -4 5 C-4 4.67 -4 4.34 -4 4 C-2.35 4 -0.7 4 1 4 C0.67 2.68 0.34 1.36 0 0 Z " fill="#1C0F35" transform="translate(341,281)"/>
<path d="M0 0 C0.79212891 -0.00128906 1.58425781 -0.00257813 2.40039062 -0.00390625 C3.64272461 0.00189453 3.64272461 0.00189453 4.91015625 0.0078125 C5.73451172 0.00394531 6.55886719 0.00007812 7.40820312 -0.00390625 C8.20162109 -0.00261719 8.99503906 -0.00132812 9.8125 0 C10.90099243 0.00169189 10.90099243 0.00169189 12.01147461 0.00341797 C13.97265625 0.1328125 13.97265625 0.1328125 16.97265625 1.1328125 C16.64265625 1.7928125 16.31265625 2.4528125 15.97265625 3.1328125 C9.70265625 3.1328125 3.43265625 3.1328125 -3.02734375 3.1328125 C-3.68734375 5.1128125 -4.34734375 7.0928125 -5.02734375 9.1328125 C-5.35734375 9.1328125 -5.68734375 9.1328125 -6.02734375 9.1328125 C-6.02734375 6.4928125 -6.02734375 3.8528125 -6.02734375 1.1328125 C-3.7647851 0.00153317 -2.50946466 0.00390665 0 0 Z " fill="#1D083C" transform="translate(258.02734375,250.8671875)"/>
<path d="M0 0 C0.391875 0.474375 0.78375 0.94875 1.1875 1.4375 C4.96853723 4.69701485 10.5281442 4.24950476 15.3125 4.5625 C16.56675781 4.64628906 17.82101563 4.73007813 19.11328125 4.81640625 C20.54220703 4.90728516 20.54220703 4.90728516 22 5 C19.38957788 7.61042212 17.48878815 7.28846788 13.92773438 7.32226562 C13.14720703 7.31904297 12.36667969 7.31582031 11.5625 7.3125 C10.39750977 7.33666992 10.39750977 7.33666992 9.20898438 7.36132812 C3.5025394 7.36624324 3.5025394 7.36624324 1.25366211 5.72729492 C0 4 0 4 0 0 Z " fill="#5E2BB3" transform="translate(130,233)"/>
<path d="M0 0 C0.33 0 0.66 0 1 0 C1.33 6.27 1.66 12.54 2 19 C3.65 19 5.3 19 7 19 C7 19.99 7 20.98 7 22 C2.25 23.125 2.25 23.125 0 22 C0 14.74 0 7.48 0 0 Z " fill="#6A31CB" transform="translate(222,289)"/>
<path d="M0 0 C0.66 0 1.32 0 2 0 C2 3.96 2 7.92 2 12 C0.68 12 -0.64 12 -2 12 C-1.85904936 10.3745692 -1.71207913 8.74965949 -1.5625 7.125 C-1.48128906 6.22007812 -1.40007812 5.31515625 -1.31640625 4.3828125 C-1 2 -1 2 0 0 Z " fill="#09100D" transform="translate(252,219)"/>
<path d="M0 0 C0.93457031 0.00322266 1.86914062 0.00644531 2.83203125 0.00976562 C3.80011719 0.01814453 4.76820313 0.02652344 5.765625 0.03515625 C6.74917969 0.03966797 7.73273438 0.04417969 8.74609375 0.04882812 C11.16933291 0.06059142 13.59244773 0.07702941 16.015625 0.09765625 C16.015625 0.42765625 16.015625 0.75765625 16.015625 1.09765625 C14.71367187 1.13503906 13.41171875 1.17242187 12.0703125 1.2109375 C10.34372243 1.27662299 8.61716119 1.34306943 6.890625 1.41015625 C5.60671875 1.44399414 5.60671875 1.44399414 4.296875 1.47851562 C-2.31092783 1.75807651 -6.45066488 3.40851617 -11.984375 7.09765625 C-11.984375 6.10765625 -11.984375 5.11765625 -11.984375 4.09765625 C-11.324375 4.09765625 -10.664375 4.09765625 -9.984375 4.09765625 C-9.654375 3.10765625 -9.324375 2.11765625 -8.984375 1.09765625 C-6.03030311 -0.0519275 -3.1407606 -0.01915098 0 0 Z " fill="#0F002E" transform="translate(170.984375,186.90234375)"/>
<path d="M0 0 C0.66 0 1.32 0 2 0 C2.66 1.65 3.32 3.3 4 5 C0.99833199 7.61289776 -0.79627311 8.36930244 -4.765625 8.29296875 C-5.65507812 8.28330078 -6.54453125 8.27363281 -7.4609375 8.26367188 C-8.38132813 8.23853516 -9.30171875 8.21339844 -10.25 8.1875 C-11.65378906 8.16719727 -11.65378906 8.16719727 -13.0859375 8.14648438 C-15.39121327 8.11119954 -17.6953106 8.06190281 -20 8 C-20 7.67 -20 7.34 -20 7 C-10.1 6.505 -10.1 6.505 0 6 C0 4.02 0 2.04 0 0 Z " fill="#281155" transform="translate(153,210)"/>
<path d="M0 0 C0.33 0 0.66 0 1 0 C1.33 10.23 1.66 20.46 2 31 C0.35 31.33 -1.3 31.66 -3 32 C-2.34 31.34 -1.68 30.68 -1 30 C-0.62677573 26.89243985 -0.62677573 26.89243985 -0.5859375 23.2421875 C-0.56657135 22.57913605 -0.5472052 21.91608459 -0.5272522 21.23294067 C-0.46744046 19.11375823 -0.42106612 16.9945215 -0.375 14.875 C-0.33682155 13.43877831 -0.29776989 12.00257955 -0.2578125 10.56640625 C-0.16173875 7.04448064 -0.07771358 3.52238392 0 0 Z " fill="#702EDD" transform="translate(240,242)"/>
<path d="M0 0 C0.33 0 0.66 0 1 0 C1.33 6.6 1.66 13.2 2 20 C2.66 20 3.32 20 4 20 C5.63676257 18.0399719 5.63676257 18.0399719 7 16 C7.042721 17.66611905 7.04063832 19.33382885 7 21 C6.67 21.33 6.34 21.66 6 22 C4.02 22 2.04 22 0 22 C0 14.74 0 7.48 0 0 Z " fill="#6A32C8" transform="translate(222,161)"/>
<path d="M0 0 C2.64 0 5.28 0 8 0 C8 7.92 8 15.84 8 24 C7.34 23.67 6.68 23.34 6 23 C6 16.4 6 9.8 6 3 C4.02 2.34 2.04 1.68 0 1 C0 0.67 0 0.34 0 0 Z " fill="#170833" transform="translate(201,286)"/>
<path d="M0 0 C0.33 0 0.66 0 1 0 C1 6.6 1 13.2 1 20 C2.32 19.67 3.64 19.34 5 19 C5.33 19.99 5.66 20.98 6 22 C4.34385343 22.38218767 2.67542976 22.71395102 1 23 C0 22 0 22 -0.11352539 19.86694336 C-0.10828857 18.95050049 -0.10305176 18.03405762 -0.09765625 17.08984375 C-0.09443359 16.10048828 -0.09121094 15.11113281 -0.08789062 14.09179688 C-0.07951172 13.05087891 -0.07113281 12.00996094 -0.0625 10.9375 C-0.05798828 9.89271484 -0.05347656 8.84792969 -0.04882812 7.77148438 C-0.03699913 5.1809334 -0.02051689 2.59049441 0 0 Z " fill="#6C2ED4" transform="translate(200,289)"/>
<path d="M0 0 C0.78552246 0.01047363 1.57104492 0.02094727 2.38037109 0.03173828 C3.23115234 0.03818359 4.08193359 0.04462891 4.95849609 0.05126953 C6.29267578 0.07640625 6.29267578 0.07640625 7.65380859 0.10205078 C8.99958984 0.11558594 8.99958984 0.11558594 10.37255859 0.12939453 C12.59157445 0.15300108 14.81005937 0.18592768 17.02880859 0.22705078 C17.02880859 0.55705078 17.02880859 0.88705078 17.02880859 1.22705078 C11.08880859 1.55705078 5.14880859 1.88705078 -0.97119141 2.22705078 C-0.97119141 4.53705078 -0.97119141 6.84705078 -0.97119141 9.22705078 C-1.96119141 8.56705078 -2.95119141 7.90705078 -3.97119141 7.22705078 C-4.28369141 4.72705078 -4.28369141 4.72705078 -3.97119141 2.22705078 C-1.97119141 0.22705078 -1.97119141 0.22705078 0 0 Z " fill="#5B2CA5" transform="translate(256.97119140625,207.77294921875)"/>
<path d="M0 0 C0.33 0 0.66 0 1 0 C1.66964286 7.76785714 1.66964286 7.76785714 -1.375 11.5 C-4 14 -4 14 -6 14 C-5.67 12.68 -5.34 11.36 -5 10 C-4.34 10.33 -3.68 10.66 -3 11 C-3.33 9.68 -3.66 8.36 -4 7 C-3.01 7 -2.02 7 -1 7 C-0.67 4.69 -0.34 2.38 0 0 Z " fill="#6930C6" transform="translate(247,266)"/>
<path d="M0 0 C1.21977789 3.9943431 0.4395743 6.08115885 -1 10 C-1.144375 10.886875 -1.28875 11.77375 -1.4375 12.6875 C-2.07710914 15.31700426 -2.94230558 16.30016548 -5 18 C-4.51030705 11.38914524 -2.66557258 6.05022986 0 0 Z " fill="#727374" transform="translate(115,146)"/>
<path d="M0 0 C5.75 1.75 5.75 1.75 8 4 C8 5.32 8 6.64 8 8 C7.01 8 6.02 8 5 8 C5 7.34 5 6.68 5 6 C4.34 6 3.68 6 3 6 C3 5.01 3 4.02 3 3 C1.68 2.34 0.36 1.68 -1 1 C-0.67 0.67 -0.34 0.34 0 0 Z " fill="#682EC6" transform="translate(239,189)"/>
<path d="M0 0 C2.97 0.495 2.97 0.495 6 1 C5.30058404 4.14737182 4.23921302 7.02588876 3 10 C2.67 10 2.34 10 2 10 C2 7.03 2 4.06 2 1 C1.34 0.67 0.68 0.34 0 0 Z " fill="#100D21" transform="translate(274,229)"/>
<path d="M0 0 C0.93972656 0.12568359 0.93972656 0.12568359 1.8984375 0.25390625 C3.12433594 0.40666016 3.12433594 0.40666016 4.375 0.5625 C5.59316406 0.71912109 5.59316406 0.71912109 6.8359375 0.87890625 C9.04899186 1.18237328 9.04899186 1.18237328 11 0 C10.8125 1.875 10.8125 1.875 10 4 C7.4375 5.25 7.4375 5.25 5 6 C4.54625 5.525625 4.0925 5.05125 3.625 4.5625 C2.06741796 2.90972192 2.06741796 2.90972192 0 2 C0 1.34 0 0.68 0 0 Z " fill="#110A1E" transform="translate(176,310)"/>
<path d="M0 0 C0.99 0.33 1.98 0.66 3 1 C2.34 1.66 1.68 2.32 1 3 C0.67 3.66 0.34 4.32 0 5 C-1.32 5 -2.64 5 -4 5 C-4 6.65 -4 8.3 -4 10 C-4.99 10.495 -4.99 10.495 -6 11 C-5.75579333 6.76708435 -5.598306 4.62979579 -2.625 1.5 C-1.75875 1.005 -0.8925 0.51 0 0 Z " fill="#6C33CC" transform="translate(165,189)"/>
<path d="M0 0 C0.33 0.66 0.66 1.32 1 2 C0.0625 4.625 0.0625 4.625 -1 7 C-3.31 7 -5.62 7 -8 7 C-7.236875 6.401875 -6.47375 5.80375 -5.6875 5.1875 C-3.6516425 3.53040668 -1.8021721 1.89702326 0 0 Z " fill="#180835" transform="translate(246,276)"/>
<path d="M0 0 C0.66 0.33 1.32 0.66 2 1 C-0.64 4.3 -3.28 7.6 -6 11 C-6.66 10.67 -7.32 10.34 -8 10 C-6.625 7.5 -6.625 7.5 -5 5 C-4.34 5 -3.68 5 -3 5 C-2.690625 4.360625 -2.38125 3.72125 -2.0625 3.0625 C-1 1 -1 1 0 0 Z " fill="#6F7072" transform="translate(128,129)"/>
<path d="M0 0 C1.60080151 4.00200378 0.29279692 7.04556236 -1 11 C-2.76462683 7.91190305 -3 6.76687864 -3 3 C-1.5 1.25 -1.5 1.25 0 0 Z " fill="#5E5F63" transform="translate(389,317)"/>
<path d="M0 0 C1.47906892 -0.02689216 2.95827483 -0.04634621 4.4375 -0.0625 C5.26121094 -0.07410156 6.08492188 -0.08570313 6.93359375 -0.09765625 C9 0 9 0 10 1 C10.04063832 2.66617115 10.042721 4.33388095 10 6 C9.67 5.01 9.34 4.02 9 3 C6.89415562 2.19436362 6.89415562 2.19436362 4.4375 1.8125 C3.61121094 1.65394531 2.78492188 1.49539062 1.93359375 1.33203125 C1.29550781 1.22246094 0.65742188 1.11289063 0 1 C0 0.67 0 0.34 0 0 Z " fill="#6C32CB" transform="translate(266,209)"/>
<path d="M0 0 C1.98 0 3.96 0 6 0 C1.5 3 1.5 3 -3 6 C-3 5.01 -3 4.02 -3 3 C-2.34 3 -1.68 3 -1 3 C-0.67 2.01 -0.34 1.02 0 0 Z " fill="#200A43" transform="translate(162,188)"/>
<path d="M0 0 C1.32 0.33 2.64 0.66 4 1 C3.34 3.31 2.68 5.62 2 8 C1.67 8 1.34 8 1 8 C0.67 5.36 0.34 2.72 0 0 Z " fill="#190B31" transform="translate(275,252)"/>
</svg>
